<?xml version="1.0" encoding="UTF-8"?>
<svg id="Layer_2" data-name="Layer 2" xmlns="http://www.w3.org/2000/svg" viewBox="0 0 384 384">
  <defs>
    <style>
      .cls-1 {
        fill: #000;
      }

      .cls-1, .cls-2 {
        stroke-width: 0px;
      }

      .cls-2 {
        fill: #fefefe;
      }
    </style>
  </defs>
  <g id="Layer_1-2" data-name="Layer 1">
    <g>
      <path class="cls-1" d="M383.93,166.19v50.88c-1.19,6.09-5.44,8.51-11.12,9.25-8.91,1.15-17.84,2.19-26.79,2.95-3.47.29-5.39,1.67-6.27,5.15-2.9,11.44-7.89,22.06-13.51,32.37-1.22,2.24-1.11,3.8.46,5.7,5.4,6.54,10.6,13.25,15.88,19.9,7.36,9.27,7.17,14.31-1.16,22.73-8.51,8.61-17.12,17.12-25.7,25.67-.8.79-1.62,1.56-2.49,2.26-6.76,5.45-11.31,5.67-18.17.41-7.23-5.54-14.4-11.17-21.45-16.94-2.2-1.8-3.99-2.2-6.68-.71-10.18,5.64-20.76,10.46-32.1,13.31-3.51.88-4.85,2.84-5.11,6.29-.69,9.32-2.01,18.58-3.14,27.85-.79,6.56-5.14,10.26-11.71,10.27-15.24.04-30.49.04-45.73,0-6.56-.02-10.86-3.73-11.71-10.29-1.21-9.26-2.39-18.54-3.13-27.85-.27-3.45-1.62-5.39-5.12-6.28-11.46-2.91-22.1-7.87-32.44-13.48-2.22-1.2-3.85-1.14-5.74.44-6.5,5.46-13.41,10.41-19.9,15.89-2.02,1.71-4.21,3.09-6.6,4.22-3.62,1.72-7.04,1.13-10.38-.73-.87-.49-1.7-1.07-2.43-1.75-11.06-10.28-21.92-20.79-31.98-32.04-5.04-5.64-4.84-10.44-.27-16.59,5.43-7.31,11.12-14.43,16.96-21.42,2.17-2.6,2.73-4.59.89-7.88-5.62-10.03-10.3-20.52-13.14-31.71-.81-3.22-2.67-4.43-5.78-4.75-8.94-.94-17.86-1.94-26.79-2.98-5.86-.68-10.24-2.98-11.49-9.26v-50.88c1.27-6.26,5.62-8.59,11.5-9.25,8.93-1.01,17.85-2.03,26.79-2.97,3.1-.33,4.99-1.51,5.78-4.74,2.84-11.59,7.95-22.3,13.62-32.72,1.33-2.45.93-4.11-.68-6.02-5.37-6.41-10.38-13.11-15.62-19.62-7.44-9.23-7.2-14.29,1.13-22.71,8.52-8.6,17.12-17.12,25.7-25.67.53-.53,1.07-1.05,1.63-1.54,7.33-6.38,12.75-6.51,20.31-.34,6.67,5.45,13.6,10.57,20.16,16.15,2.35,2,4.25,2.03,7.01.54,10.12-5.47,20.51-10.41,31.76-13.13,3.52-.85,4.87-2.81,5.14-6.26.72-9.31,1.9-18.59,3.14-27.84.7-5.26,3.52-8.95,9.07-9.99h50.98c5.72,1.44,8.54,4.7,9.18,10.68,1,9.29,2.37,18.53,3.12,27.84.24,3,1.63,4.67,4.64,5.44,11.57,2.95,22.37,7.85,32.79,13.58,2.41,1.33,4.08,1,6.05-.61,6.3-5.11,12.68-10.12,19.05-15.13.98-.77,1.96-1.55,2.96-2.29,6.65-4.84,11.24-4.94,17.55.43,7.41,6.31,13.93,13.59,20.84,20.44,3.72,3.69,7.69,7.13,10.87,11.33,4.34,5.73,4.46,10.47,0,16.38-5.49,7.26-11.08,14.46-16.96,21.42-2.23,2.64-2.63,4.71-.84,7.93,5.52,9.94,10.19,20.3,12.99,31.36.88,3.5,2.84,4.83,6.29,5.12,8.95.75,17.87,1.81,26.78,2.94,5.69.72,9.91,3.17,11.12,9.24Z"/>
      <path class="cls-2" d="M.07,217.07c2.64,5.51,6.89,8.12,13.14,8.54,9.08.61,18.11,2.01,27.17,2.95,2.39.25,3.53,1.02,4.21,3.6,3.26,12.31,8.08,24.03,14.59,35,1.2,2.02,1.12,3.29-.4,5.13-6.27,7.6-12.37,15.33-18.47,23.07-4.63,5.88-4.35,11.38.89,16.65,10.03,10.09,20.1,20.14,30.22,30.15,5.16,5.1,10.71,5.49,16.41,1.05,7.87-6.13,15.67-12.36,23.41-18.67,1.65-1.34,2.85-1.67,4.81-.5,10.99,6.5,22.7,11.37,35.04,14.59,2.88.75,3.7,2.12,3.97,4.76.96,9.54,2.12,19.07,3.15,28.61.78,7.21,5.07,11.16,12.41,11.18,14.24.04,28.48.04,42.73,0,7.37-.02,11.63-3.96,12.43-11.17,1.09-9.91,2.3-19.8,3.34-29.71.22-2.06,1.02-2.87,3.06-3.4,12.46-3.3,24.33-8.1,35.42-14.67,2.23-1.32,3.57-1.01,5.46.54,7.52,6.17,15.17,12.19,22.81,18.21,5.88,4.63,11.43,4.41,16.7-.79,10.13-9.99,20.19-20.05,30.21-30.15,5.24-5.29,5.52-10.82.9-16.67-6.18-7.83-12.39-15.64-18.72-23.35-1.34-1.63-1.33-2.77-.31-4.51,6.65-11.32,11.63-23.36,14.95-36.05.52-1.98,1.46-2.53,3.28-2.73,9.31-.99,18.59-2.34,27.91-3.04,6.2-.46,10.51-3.05,13.12-8.59,0,54.62-.02,109.25.07,163.87,0,2.56-.5,3.07-3.07,3.06-125.95-.08-251.9-.08-377.86,0-2.57,0-3.08-.5-3.07-3.06.1-54.62.07-109.25.07-163.87Z"/>
      <path class="cls-2" d="M166.51.07c-5.56,2.61-8.14,6.9-8.58,13.1-.64,9.06-2,18.07-2.93,27.11-.25,2.38-1.01,3.53-3.59,4.21-12.45,3.3-24.29,8.17-35.39,14.71-1.73,1.02-2.88,1.06-4.52-.29-7.42-6.09-14.95-12.06-22.49-18.01-6.99-5.53-12.14-5.23-18.39.99-9.64,9.6-19.27,19.2-28.88,28.82-5.88,5.89-6.17,11.21-.95,17.79,6.05,7.62,12.08,15.24,18.27,22.75,1.36,1.65,1.29,2.79.28,4.51-6.6,11.21-11.54,23.13-14.84,35.69-.6,2.28-1.66,2.93-3.75,3.15-9.18.99-18.33,2.4-27.53,3.02-6.25.42-10.5,3.02-13.13,8.54C.07,111.87.1,57.56,0,3.25,0,.55.56,0,3.26,0c54.42.1,108.84.07,163.25.07Z"/>
      <path class="cls-2" d="M383.93,166.19c-2.61-5.55-6.9-8.15-13.11-8.59-9.08-.65-18.11-1.98-27.17-2.9-2.36-.24-3.55-.96-4.24-3.57-3.26-12.3-8.06-24.03-14.58-34.99-1.19-2-1.19-3.28.35-5.14,6.27-7.59,12.38-15.32,18.48-23.06,4.63-5.86,4.38-11.39-.85-16.67-10.01-10.11-20.08-20.16-30.2-30.15-5.3-5.23-10.85-5.48-16.7-.87-7.84,6.18-15.64,12.39-23.41,18.65-1.37,1.11-2.36,1.56-4.17.5-11.55-6.76-23.8-11.93-36.81-15.18-1.93-.48-2.18-1.63-2.35-3.2-1.04-9.28-2.4-18.54-3.1-27.85-.46-6.19-2.99-10.51-8.58-13.1C271.97.07,326.45.1,380.93,0c2.57,0,3.08.5,3.07,3.07-.1,54.37-.07,108.75-.07,163.12Z"/>
      <path class="cls-2" d="M303.06,319.82c-.88-.63-1.7-1.16-2.46-1.77-6.74-5.36-13.48-10.71-20.19-16.1-6.74-5.41-10.37-5.66-17.55-1.04-13.55,8.71-28.14,14.84-43.96,18.06-7.63,1.55-10.41,4.94-11.2,12.75-.9,8.92-2.03,17.82-2.94,26.75-.18,1.74-.72,2.32-2.49,2.3-6.87-.09-13.74-.09-20.61,0-1.83.02-2.25-.69-2.42-2.36-.94-9.3-2.02-18.58-3.03-27.87-.68-6.28-3.52-9.8-9.74-11.14-16.87-3.62-32.54-10.03-46.98-19.49-5.05-3.31-9.38-3.01-14.16.72-7.37,5.76-14.69,11.59-21.93,17.52-1.79,1.47-2.85,1.58-4.54-.22-4.36-4.64-8.88-9.12-13.51-13.49-1.65-1.56-1.68-2.5-.25-4.23,5.72-6.92,11.27-13.98,16.87-21,4.74-5.94,5.01-9.91.88-16.3-8.88-13.72-15.17-28.49-18.47-44.53-1.57-7.63-4.87-10.29-12.83-11.11-8.94-.92-17.86-2.01-26.8-2.94-1.48-.15-2.24-.47-2.22-2.18.08-6.98.07-13.96,0-20.95-.01-1.55.44-2.14,2.07-2.31,9.19-.93,18.36-2.03,27.54-2.99,7.14-.74,10.61-3.52,12.08-10.58,3.42-16.4,9.77-31.53,18.95-45.53,3.74-5.7,3.42-9.94-.9-15.39-5.58-7.04-11.17-14.06-16.88-20.99-1.51-1.83-1.88-2.98.12-4.82,4.58-4.24,8.99-8.66,13.25-13.22,1.82-1.95,2.96-1.68,4.83-.14,6.84,5.63,13.8,11.1,20.74,16.6,5.87,4.66,9.83,4.97,16.01.96,13.84-8.98,28.76-15.23,44.93-18.61,7.53-1.57,10.25-4.98,11.01-12.51.91-9.05,2.04-18.07,2.96-27.12.16-1.61.73-2.1,2.29-2.09,7,.06,13.99.07,20.99,0,1.68-.02,2.05.69,2.2,2.19.95,9.17,2.06,18.32,3,27.49.71,6.87,3.52,10.44,10.35,11.85,16.68,3.45,32.04,9.96,46.29,19.23,5.21,3.39,9.53,3.11,14.47-.75,7.37-5.77,14.71-11.57,21.94-17.5,1.72-1.41,2.67-1.45,4.24.22,4.46,4.71,9.07,9.28,13.76,13.76,1.52,1.45,1.49,2.36.2,3.94-5.77,7.04-11.41,14.18-17.09,21.3-4.59,5.76-4.86,9.85-.85,15.99,9,13.81,15.28,28.71,18.62,44.86,1.54,7.42,5.04,10.16,12.62,10.89,8.94.87,17.86,2.02,26.8,2.93,1.66.17,2.41.56,2.39,2.4-.1,6.86-.09,13.72,0,20.57.02,1.74-.52,2.32-2.29,2.5-9.19.92-18.36,2.05-27.55,2.98-6.68.67-10.29,3.45-11.69,10.05-3.56,16.74-10.03,32.23-19.4,46.55-3.39,5.18-3.05,9.49.85,14.43,5.48,6.95,10.89,13.98,16.66,20.68,2.37,2.76,2.05,4.23-.5,6.52-4.45,4-8.54,8.4-12.78,12.63-.52.52-1.07,1-1.73,1.62Z"/>
      <path class="cls-1" d="M107.28,191.76c0-16.96.24-33.92-.09-50.87-.2-10.32,4.13-17.99,12.03-23.99,10.79-8.19,23.41-12.04,36.46-14.53,28.75-5.49,57.35-4.94,85.6,3.21,8.42,2.43,16.44,5.84,23.44,11.24,7.84,6.06,12.15,13.67,12.08,23.98-.24,33.79-.25,67.58,0,101.36.08,10.45-4.14,18.25-12.18,24.31-10.81,8.15-23.44,11.99-36.5,14.45-28.64,5.4-57.11,4.85-85.25-3.22-8.55-2.45-16.68-5.9-23.77-11.4-7.84-6.08-12.14-13.75-11.93-24.06.34-16.83.09-33.66.09-50.49Z"/>
      <path class="cls-2" d="M129.77,218.48c41.59,14.78,82.87,14.78,124.45.03,0,8.51.03,17.19-.02,25.86-.01,2.33-1.95,3.39-3.52,4.52-6.49,4.66-13.94,7.16-21.62,8.86-27.65,6.13-55.17,6-82.4-2.41-5.02-1.55-9.75-3.74-14-6.88-2.05-1.52-3.01-3.29-2.95-5.98.18-8.05.06-16.1.06-24Z"/>
      <path class="cls-2" d="M129.77,166.15c41.57,14.86,82.83,14.84,124.45.03,0,7.64.05,15.43-.03,23.22-.03,2.42-2.1,3.57-3.79,4.75-6.85,4.81-14.68,7.33-22.75,9.01-27.06,5.66-53.98,5.49-80.59-2.61-5.37-1.63-10.5-3.9-14.92-7.5-1.64-1.34-2.47-2.84-2.42-5.1.15-7.3.06-14.61.06-21.8Z"/>
      <path class="cls-2" d="M191.72,154.78c-16.36-.33-32.94-1.88-48.77-8.02-4.08-1.58-7.93-3.57-11.32-6.4-2.07-1.72-1.93-3.12.06-4.75,4.4-3.63,9.51-5.88,14.85-7.64,18.4-6.07,37.34-7.43,56.54-6.28,12.62.75,25.03,2.69,36.93,7.15,3.85,1.45,7.59,3.16,10.89,5.67,3.99,3.02,4.02,4.01-.08,7.06-5.48,4.09-11.86,6.26-18.34,8.1-13.18,3.75-26.71,4.85-40.77,5.11Z"/>
    </g>
  </g>
</svg>