<?xml version="1.0" encoding="UTF-8"?>
<svg id="Layer_1" data-name="Layer 1" xmlns="http://www.w3.org/2000/svg" version="1.1" viewBox="0 0 512 512">
  <defs>
    <style>
      .cls-1 {
        fill: #0984e3;
        stroke-width: 0px;
      }
    </style>
  </defs>
  <path class="cls-1" d="M450,128c-25.4,0-46,20.6-46,46,0,4.4.6,8.8,1.9,13l-71.4,71.4c-9.4-3.1-19.6-3.1-29,0l-52.9-52.9c6.3-24.6-8.5-49.7-33.1-56s-49.7,8.5-56,33.1c-1.9,7.5-1.9,15.3,0,22.8l-88.5,88.4c-24.4-7.2-50,6.7-57.3,31.1-7.2,24.4,6.7,50,31.1,57.3,24.4,7.2,50-6.7,57.3-31.1,2.5-8.5,2.5-17.6,0-26.1l87.4-87.4c9.4,3.1,19.6,3.1,29,0l52.9,52.9c-6.3,24.6,8.5,49.7,33.1,56,24.6,6.3,49.7-8.5,56-33.1,1.9-7.5,1.9-15.3,0-22.8l72.5-72.4c24.4,7.2,49.9-6.7,57.1-31.1,7.2-24.4-6.7-49.9-31.1-57.1-4.2-1.2-8.6-1.9-13-1.9Z"/>
</svg>