<?xml version="1.0" encoding="UTF-8"?>
<svg id="Layer_2" data-name="Layer 2" xmlns="http://www.w3.org/2000/svg" version="1.1" viewBox="0 0 384 384">
  <defs>
    <style>
      .cls-1 {
        fill: #0984e3;
      }

      .cls-1, .cls-2 {
        stroke-width: 0px;
      }

      .cls-2 {
        fill: #fefefe;
      }
    </style>
  </defs>
  <g id="Layer_1-2" data-name="Layer 1-2">
    <g>
      <path class="cls-1" d="M383.9,166.2v50.9c-1.2,6.1-5.4,8.5-11.1,9.2-8.9,1.1-17.8,2.2-26.8,2.9-3.5.3-5.4,1.7-6.3,5.1-2.9,11.4-7.9,22.1-13.5,32.4-1.2,2.2-1.1,3.8.5,5.7,5.4,6.5,10.6,13.2,15.9,19.9,7.4,9.3,7.2,14.3-1.2,22.7-8.5,8.6-17.1,17.1-25.7,25.7-.8.8-1.6,1.6-2.5,2.3-6.8,5.5-11.3,5.7-18.2.4-7.2-5.5-14.4-11.2-21.5-16.9-2.2-1.8-4-2.2-6.7-.7-10.2,5.6-20.8,10.5-32.1,13.3-3.5.9-4.9,2.8-5.1,6.3-.7,9.3-2,18.6-3.1,27.9-.8,6.6-5.1,10.3-11.7,10.3-15.2,0-30.5,0-45.7,0-6.6,0-10.9-3.7-11.7-10.3-1.2-9.3-2.4-18.5-3.1-27.9-.3-3.5-1.6-5.4-5.1-6.3-11.5-2.9-22.1-7.9-32.4-13.5-2.2-1.2-3.8-1.1-5.7.4-6.5,5.5-13.4,10.4-19.9,15.9-2,1.7-4.2,3.1-6.6,4.2-3.6,1.7-7,1.1-10.4-.7-.9-.5-1.7-1.1-2.4-1.8-11.1-10.3-21.9-20.8-32-32-5-5.6-4.8-10.4-.3-16.6,5.4-7.3,11.1-14.4,17-21.4,2.2-2.6,2.7-4.6.9-7.9-5.6-10-10.3-20.5-13.1-31.7-.8-3.2-2.7-4.4-5.8-4.8-8.9-.9-17.9-1.9-26.8-3-5.9-.7-10.2-3-11.5-9.3v-50.9c1.3-6.3,5.6-8.6,11.5-9.2,8.9-1,17.9-2,26.8-3,3.1-.3,5-1.5,5.8-4.7,2.8-11.6,8-22.3,13.6-32.7,1.3-2.4.9-4.1-.7-6-5.4-6.4-10.4-13.1-15.6-19.6-7.4-9.2-7.2-14.3,1.1-22.7,8.5-8.6,17.1-17.1,25.7-25.7.5-.5,1.1-1,1.6-1.5,7.3-6.4,12.8-6.5,20.3-.3,6.7,5.5,13.6,10.6,20.2,16.1,2.3,2,4.2,2,7,.5,10.1-5.5,20.5-10.4,31.8-13.1,3.5-.8,4.9-2.8,5.1-6.3.7-9.3,1.9-18.6,3.1-27.8.7-5.3,3.5-8.9,9.1-10h51c5.7,1.4,8.5,4.7,9.2,10.7,1,9.3,2.4,18.5,3.1,27.8.2,3,1.6,4.7,4.6,5.4,11.6,3,22.4,7.8,32.8,13.6,2.4,1.3,4.1,1,6-.6,6.3-5.1,12.7-10.1,19-15.1,1-.8,2-1.5,3-2.3,6.6-4.8,11.2-4.9,17.5.4,7.4,6.3,13.9,13.6,20.8,20.4,3.7,3.7,7.7,7.1,10.9,11.3,4.3,5.7,4.5,10.5,0,16.4-5.5,7.3-11.1,14.5-17,21.4-2.2,2.6-2.6,4.7-.8,7.9,5.5,9.9,10.2,20.3,13,31.4.9,3.5,2.8,4.8,6.3,5.1,9,.8,17.9,1.8,26.8,2.9,5.7.7,9.9,3.2,11.1,9.2h0Z"/>
      <path class="cls-2" d="M303.1,319.8c-.9-.6-1.7-1.2-2.5-1.8-6.7-5.4-13.5-10.7-20.2-16.1-6.7-5.4-10.4-5.7-17.5-1-13.6,8.7-28.1,14.8-44,18.1-7.6,1.5-10.4,4.9-11.2,12.8-.9,8.9-2,17.8-2.9,26.8-.2,1.7-.7,2.3-2.5,2.3-6.9,0-13.7,0-20.6,0-1.8,0-2.2-.7-2.4-2.4-.9-9.3-2-18.6-3-27.9-.7-6.3-3.5-9.8-9.7-11.1-16.9-3.6-32.5-10-47-19.5-5.1-3.3-9.4-3-14.2.7-7.4,5.8-14.7,11.6-21.9,17.5-1.8,1.5-2.8,1.6-4.5-.2-4.4-4.6-8.9-9.1-13.5-13.5-1.7-1.6-1.7-2.5-.2-4.2,5.7-6.9,11.3-14,16.9-21,4.7-5.9,5-9.9.9-16.3-8.9-13.7-15.2-28.5-18.5-44.5-1.6-7.6-4.9-10.3-12.8-11.1-8.9-.9-17.9-2-26.8-2.9-1.5-.1-2.2-.5-2.2-2.2,0-7,0-14,0-20.9,0-1.6.4-2.1,2.1-2.3,9.2-.9,18.4-2,27.5-3,7.1-.7,10.6-3.5,12.1-10.6,3.4-16.4,9.8-31.5,18.9-45.5,3.7-5.7,3.4-9.9-.9-15.4-5.6-7-11.2-14.1-16.9-21-1.5-1.8-1.9-3,.1-4.8,4.6-4.2,9-8.7,13.2-13.2,1.8-2,3-1.7,4.8-.1,6.8,5.6,13.8,11.1,20.7,16.6,5.9,4.7,9.8,5,16,1,13.8-9,28.8-15.2,44.9-18.6,7.5-1.6,10.2-5,11-12.5.9-9,2-18.1,3-27.1.2-1.6.7-2.1,2.3-2.1,7,0,14,0,21,0,1.7,0,2.1.7,2.2,2.2.9,9.2,2.1,18.3,3,27.5.7,6.9,3.5,10.4,10.4,11.8,16.7,3.4,32,10,46.3,19.2,5.2,3.4,9.5,3.1,14.5-.8,7.4-5.8,14.7-11.6,21.9-17.5,1.7-1.4,2.7-1.5,4.2.2,4.5,4.7,9.1,9.3,13.8,13.8,1.5,1.4,1.5,2.4.2,3.9-5.8,7-11.4,14.2-17.1,21.3-4.6,5.8-4.9,9.8-.9,16,9,13.8,15.3,28.7,18.6,44.9,1.5,7.4,5,10.2,12.6,10.9,8.9.9,17.9,2,26.8,2.9,1.7.2,2.4.6,2.4,2.4-.1,6.9,0,13.7,0,20.6,0,1.7-.5,2.3-2.3,2.5-9.2.9-18.4,2.1-27.5,3-6.7.7-10.3,3.4-11.7,10.1-3.6,16.7-10,32.2-19.4,46.5-3.4,5.2-3,9.5.9,14.4,5.5,7,10.9,14,16.7,20.7,2.4,2.8,2,4.2-.5,6.5-4.5,4-8.5,8.4-12.8,12.6-.5.5-1.1,1-1.7,1.6h0Z"/>
      <path class="cls-1" d="M107.3,191.8c0-17,.2-33.9,0-50.9-.2-10.3,4.1-18,12-24,10.8-8.2,23.4-12,36.5-14.5,28.8-5.5,57.4-4.9,85.6,3.2,8.4,2.4,16.4,5.8,23.4,11.2,7.8,6.1,12.1,13.7,12.1,24-.2,33.8-.2,67.6,0,101.4,0,10.4-4.1,18.2-12.2,24.3-10.8,8.1-23.4,12-36.5,14.5-28.6,5.4-57.1,4.9-85.2-3.2-8.6-2.5-16.7-5.9-23.8-11.4-7.8-6.1-12.1-13.8-11.9-24.1.3-16.8,0-33.7,0-50.5h0Z"/>
      <path class="cls-2" d="M129.8,218.5c41.6,14.8,82.9,14.8,124.4,0,0,8.5,0,17.2,0,25.9,0,2.3-1.9,3.4-3.5,4.5-6.5,4.7-13.9,7.2-21.6,8.9-27.6,6.1-55.2,6-82.4-2.4-5-1.6-9.8-3.7-14-6.9-2.1-1.5-3-3.3-2.9-6,.2-8.1,0-16.1,0-24Z"/>
      <path class="cls-2" d="M129.8,166.1c41.6,14.9,82.8,14.8,124.4,0,0,7.6,0,15.4,0,23.2,0,2.4-2.1,3.6-3.8,4.8-6.9,4.8-14.7,7.3-22.8,9-27.1,5.7-54,5.5-80.6-2.6-5.4-1.6-10.5-3.9-14.9-7.5-1.6-1.3-2.5-2.8-2.4-5.1.1-7.3,0-14.6,0-21.8h0Z"/>
      <path class="cls-2" d="M191.7,154.8c-16.4-.3-32.9-1.9-48.8-8-4.1-1.6-7.9-3.6-11.3-6.4-2.1-1.7-1.9-3.1,0-4.8,4.4-3.6,9.5-5.9,14.9-7.6,18.4-6.1,37.3-7.4,56.5-6.3,12.6.8,25,2.7,36.9,7.1,3.9,1.4,7.6,3.2,10.9,5.7,4,3,4,4,0,7.1-5.5,4.1-11.9,6.3-18.3,8.1-13.2,3.8-26.7,4.9-40.8,5.1h0Z"/>
    </g>
  </g>
</svg>