<?xml version="1.0" encoding="UTF-8"?>
<svg xmlns="http://www.w3.org/2000/svg" version="1.1" viewBox="0 0 24 24">
  <defs>
    <style>
      .cls-1 {
        fill: #0969da;
      }
    </style>
  </defs>
  <!-- Generator: Adobe Illustrator 28.6.0, SVG Export Plug-In . SVG Version: 1.2.0 Build 709)  -->
  <g>
    <g id="Layer_1">
      <path class="cls-1" d="M5,21c-.9,0-1.5-.4-1.8-1.1-.4-.8-.3-1.5.3-2.1l5.6-6.8v-6h-1c-.3,0-.5,0-.7-.3s-.3-.4-.3-.7,0-.5.3-.7.4-.3.7-.3h8c.3,0,.5,0,.7.3s.3.4.3.7,0,.5-.3.7-.4.3-.7.3h-1v6l5.6,6.8c.5.7.6,1.4.3,2.1s-1,1.1-1.8,1.1H5ZM7,18h10l-3.4-4h-3.2s-3.4,4-3.4,4ZM5,19h14l-6-7.3v-6.7h-2v6.7l-6,7.3Z"/>
    </g>
  </g>
</svg>