<?xml version="1.0" encoding="UTF-8"?>
<svg xmlns="http://www.w3.org/2000/svg" version="1.1" viewBox="0 0 360.6 354.9">
  <defs>
    <style>
      .cls-1 {
        fill: #0969da;
      }
    </style>
  </defs>
  <!-- Generator: Adobe Illustrator 28.6.0, SVG Export Plug-In . SVG Version: 1.2.0 Build 709)  -->
  <g>
    <g id="Layer_2">
      <g id="Layer_1-2">
        <g>
          <path class="cls-1" d="M197.5,141.4c-.8-1.5-1.6-3-2.5-4.5-19.2-31.9-38.5-63.8-57.7-95.8-9.3-15.4-1.3-34.1,16.1-38.1,10.2-2.3,20.8,2.5,27.1,12.4,12.8,20.4,25.4,40.9,38.1,61.3,9.6,15.5,19.1,31,28.8,46.4,8.1,12.8,18.5,23.2,31.6,30.7,8.1,4.6,12.4,2.4,13.6-6.8,2.4-17.9,5.2-35.8,10.7-53.1,7.1-22.2,30.5-33,52-23.8,4.9,2.1,5.9,4.2,4.7,9.3-3.1,13.5-6.7,26.9-9,40.5-3.4,20.2-1.7,40.5,1.8,60.7,3.6,20.7,5.6,41.5,5.9,62.5.3,21.2-6.5,39.6-21.3,54.5-15.9,16-32.2,31.7-51.8,43.3-31.1,18.5-62.6,18.1-94.3,1.2-17-9.1-31.7-21.1-45.7-34.2-38-35.4-22.8-23.4-69.8-50-20.6-11.6-41.4-23-62.1-34.5-11.8-6.6-15.6-19.8-9.3-31.8,6.1-11.5,19.2-15.8,31-9.9,28.9,14.6,57.7,29.4,86.6,44.2,1.4.7,2.8,1.4,4.8,1.4-1.4-1.2-2.9-2.4-4.3-3.5-33.2-25.4-66.4-50.8-99.5-76.2-15.5-11.8-14.3-33.9,2.3-42.6,9.2-4.8,18.2-4,26.7,2.1,34.1,24.5,68.3,49,102.5,73.5,1.2.9,2.4,1.7,4.2,1.9-1-1.2-2-2.5-3.1-3.7-31.6-33.3-63.2-66.6-94.8-100-14.6-15.5-7-40.7,13.7-45.3,9.9-2.2,18.7.3,25.9,7.9,30.8,32.2,61.7,64.3,92.5,96.5,1.3,1.3,2.3,2.9,3.5,4.4.4-.4.8-.8,1.2-1.1h0v.2ZM347.2,79.9c-.7-.2-1.4-.6-2.1-.7-13-2.7-25.9,4.6-29.9,17.2-2.4,7.7-4.5,15.6-6,23.5-2.1,10.6-3.3,21.4-5.4,32.1-2,10.4-10.1,17.1-19.4,16-3.6-.4-7.3-1.8-10.5-3.5-15.5-8.4-27.5-20.5-36.8-35.4-21.8-34.9-43.5-69.9-65.2-104.8-1.1-1.8-2.3-3.6-3.7-5.2-4.4-4.8-10.3-5.9-15.6-3.2-7.4,3.8-9.4,11.8-4.9,19.4,19.2,31.8,38.4,63.6,57.5,95.5,1.6,2.6,2.8,5.6,3.7,8.5,1.5,5.1,0,9.4-4.3,12.6-4.3,3.2-8.9,3.3-13.3.5-2.5-1.6-4.8-3.6-6.8-5.8-31-32.2-61.9-64.4-92.8-96.6-7.9-8.2-20.2-6.2-25.1,4.1-3,6.2-2,11.8,3.3,17.4,31.6,33.3,63.2,66.6,94.7,100,2.1,2.2,4,4.8,5.4,7.6,2.3,4.6,1.2,9.1-2.2,12.8-3.4,3.8-7.8,5.1-12.6,3.2-2.8-1.1-5.3-2.7-7.8-4.4-34.1-24.4-68.1-48.8-102.2-73.1-2.1-1.5-4.6-2.8-7-3.1-5.9-.9-11.5,2.6-13.5,7.9-2.2,5.6-.4,11.7,4.7,15.6,33.8,25.9,67.5,51.7,101.3,77.6,2.4,1.9,4.8,4.1,6.6,6.5,3.4,4.5,3.2,9.1.1,13.6-3,4.3-7.1,6-12.4,4.6-2.4-.6-4.8-1.5-6.9-2.6-28.9-14.7-57.7-29.5-86.5-44.2-7.2-3.7-13.4-2.1-16.6,4.2-3.5,6.7-1.4,12.3,5.8,16.4,20.9,11.6,41.7,23.4,62.8,34.8,22.2,12.1,44.8,23.8,62,43.1,1.3,1.5,2.9,2.8,4.3,4.1,14.1,13.1,28.4,25.9,45.3,35.3,27,15,54.4,16.6,81.5.9,21.9-12.7,40.3-29.8,56.9-48.6,9.4-10.7,13-23.9,13.1-38.1.1-21.7-2.2-43.1-5.9-64.4-3.8-22.2-5-44.4-1.1-66.6,2-11.4,4.9-22.6,7.4-34.4h0v-.3Z"/>
          <path class="cls-1" d="M81.6,333c-34.8-2.3-61.8-18-79.5-48.8-.6-1-1.1-2-1.5-3-1.2-3,0-6.2,2.6-7.7,2.7-1.5,6.1-.6,7.9,2.1,1.4,2.1,2.4,4.4,3.8,6.5,16.1,24.7,38.9,37.5,68.3,38.7,1.2,0,2.5,0,3.7.1,3.2.4,5.3,2.2,5.4,5.6,0,3.4-1.7,5.4-4.9,6-1.7.3-3.5.3-5.6.5h-.2Z"/>
          <path class="cls-1" d="M290.4,78.5c0,3.5-2.3,6.1-5.3,6.4-3.2.3-5.8-2.1-6.6-5.8-1.5-6.7-2.6-13.5-5-19.8-8.6-22.3-24.4-37.8-46.6-46.8-1.1-.5-2.4-.8-3.4-1.4-3-1.6-4.1-4.7-2.9-7.6,1.3-2.9,4.1-4.3,7.4-3.2,11.3,3.7,21.4,9.5,30.3,17.3,18.1,15.8,28.7,35.7,32,59.5,0,.5,0,1,.1,1.3h0Z"/>
          <path class="cls-1" d="M261.3,84.6c0,3.5-1.9,5.5-5,6.2-2.8.7-5.6-1.1-6.6-4.2-.7-2.4-1-4.9-1.7-7.3-4.6-16.2-14.2-28.3-29-36.4-1.6-.9-3.2-2-4.2-3.5-1.6-2.3-1.1-4.8.8-6.8,2.2-2.3,5-2.7,7.5-1,6.5,4.5,13.4,8.7,19.1,14.2,10.3,9.8,16.1,22.3,18.7,36.3.2.8.2,1.7.3,2.5h.1Z"/>
          <path class="cls-1" d="M81.4,303c-20.1-2.6-37-12.2-49.4-29.5-1.3-1.8-2.5-3.7-3.6-5.7-2-3.6-1.2-7,1.9-8.8,3.1-1.8,6.4-.8,8.5,2.8,7.2,12.3,17.4,21.1,30.7,26,4.4,1.6,9.1,2.3,13.8,3.2,3.8.8,6.1,3.1,5.8,6.5-.2,3.3-3,5.5-7.7,5.4h0Z"/>
          <path class="cls-1" d="M347.2,79.9c-2.6,11.8-5.4,23-7.4,34.4-4,22.2-2.8,44.4,1.1,66.6,3.7,21.3,6,42.7,5.9,64.4,0,14.2-3.7,27.4-13.1,38.1-16.6,18.9-35,36-56.9,48.6-27.1,15.7-54.5,14.1-81.5-.9-16.9-9.4-31.3-22.2-45.4-35.3-1.5-1.4-3-2.6-4.3-4.1-17.2-19.3-39.8-31-62-43.1-21-11.4-41.8-23.2-62.8-34.8-7.3-4.1-9.3-9.7-5.8-16.4,3.2-6.2,9.5-7.8,16.6-4.2,28.8,14.7,57.7,29.5,86.5,44.2,2.2,1.1,4.6,2.1,6.9,2.6,5.3,1.3,9.4-.4,12.4-4.6,3.1-4.5,3.2-9.1-.1-13.6-1.8-2.4-4.2-4.6-6.6-6.5-33.7-25.9-67.5-51.7-101.3-77.6-5.1-3.9-6.9-10-4.7-15.6,2-5.2,7.6-8.7,13.5-7.9,2.5.4,5,1.6,7,3.1,34.1,24.3,68.2,48.8,102.3,73.1,2.4,1.7,5,3.4,7.8,4.4,4.8,1.8,9.1.6,12.6-3.2,3.4-3.8,4.4-8.2,2.2-12.8-1.4-2.7-3.3-5.3-5.4-7.6-31.5-33.4-63.2-66.7-94.8-100-5.3-5.6-6.3-11.1-3.3-17.4,5-10.2,17.2-12.3,25.1-4.1,31,32.2,61.9,64.4,92.9,96.6,2.1,2.1,4.3,4.2,6.8,5.8,4.4,2.8,9,2.6,13.3-.5,4.3-3.2,5.8-7.5,4.3-12.6-.9-2.9-2.1-5.9-3.7-8.5-19.1-31.9-38.3-63.7-57.5-95.5-4.6-7.6-2.5-15.6,4.9-19.4,5.3-2.7,11.2-1.6,15.6,3.2,1.4,1.5,2.6,3.4,3.7,5.2,21.8,34.9,43.4,69.9,65.2,104.8,9.3,14.9,21.2,27.1,36.8,35.4,3.2,1.7,6.9,3.1,10.5,3.5,9.2,1.1,17.4-5.6,19.4-16,2-10.6,3.3-21.4,5.4-32.1,1.6-7.9,3.6-15.8,6-23.5,4-12.6,16.9-19.9,29.9-17.2.7.2,1.4.5,2.1.7h0v.3Z"/>
        </g>
      </g>
    </g>
  </g>
</svg>