<?xml version="1.0" encoding="UTF-8"?>
<svg id="Layer_2" data-name="Layer 2" xmlns="http://www.w3.org/2000/svg" viewBox="0 0 360.57 354.92">
  <defs>
    <style>
      .cls-1 {
        fill: #000;
        stroke-width: 0px;
      }
    </style>
  </defs>
  <g id="Layer_1-2" data-name="Layer 1">
    <g>
      <path class="cls-1" d="M197.54,141.37c-.82-1.49-1.6-3.02-2.48-4.48-19.24-31.93-38.52-63.84-57.73-95.79-9.29-15.44-1.33-34.09,16.15-38.06,10.18-2.31,20.82,2.48,27.06,12.45,12.76,20.4,25.41,40.88,38.11,61.32,9.6,15.47,19.14,30.98,28.84,46.38,8.05,12.77,18.47,23.2,31.64,30.7,8.07,4.6,12.37,2.35,13.6-6.83,2.4-17.93,5.17-35.78,10.68-53.08,7.09-22.25,30.5-32.99,51.99-23.84,4.92,2.09,5.91,4.16,4.73,9.35-3.07,13.48-6.68,26.87-8.99,40.48-3.44,20.25-1.74,40.5,1.76,60.68,3.59,20.67,5.58,41.5,5.9,62.53.32,21.24-6.48,39.56-21.34,54.52-15.91,16.02-32.24,31.72-51.83,43.33-31.12,18.45-62.63,18.15-94.3,1.19-16.97-9.09-31.74-21.14-45.72-34.18-37.97-35.4-22.76-23.41-69.81-49.99-20.62-11.65-41.4-23-62.09-34.51-11.8-6.56-15.65-19.77-9.32-31.79,6.06-11.5,19.24-15.84,31.05-9.86,28.9,14.64,57.71,29.44,86.56,44.18,1.41.72,2.84,1.41,4.75,1.44-1.45-1.17-2.87-2.37-4.34-3.5-33.18-25.41-66.36-50.8-99.54-76.21-15.46-11.84-14.34-33.94,2.32-42.61,9.2-4.79,18.18-4.01,26.74,2.14,34.13,24.53,68.31,48.98,102.48,73.46,1.19.85,2.4,1.69,4.24,1.94-1.03-1.22-2-2.5-3.1-3.66-31.6-33.33-63.25-66.59-94.79-99.97-14.63-15.49-7.04-40.68,13.7-45.32,9.93-2.22,18.65.3,25.89,7.87,30.79,32.2,61.68,64.29,92.51,96.45,1.28,1.34,2.31,2.91,3.46,4.38.41-.37.81-.75,1.22-1.12ZM347.22,79.9c-.69-.24-1.35-.57-2.06-.72-12.96-2.68-25.9,4.56-29.89,17.18-2.43,7.71-4.47,15.58-6.03,23.51-2.09,10.63-3.31,21.44-5.36,32.08-2.01,10.42-10.13,17.11-19.38,16.01-3.61-.43-7.3-1.77-10.52-3.5-15.51-8.36-27.48-20.54-36.75-35.42-21.75-34.92-43.46-69.88-65.21-104.8-1.12-1.79-2.26-3.62-3.68-5.16-4.42-4.8-10.31-5.94-15.58-3.21-7.4,3.83-9.44,11.8-4.86,19.42,19.16,31.83,38.37,63.63,57.48,95.49,1.58,2.63,2.8,5.57,3.67,8.52,1.49,5.05,0,9.4-4.26,12.57-4.26,3.16-8.88,3.29-13.3.52-2.5-1.56-4.75-3.64-6.81-5.77-30.98-32.18-61.88-64.43-92.85-96.62-7.9-8.21-20.17-6.17-25.14,4.06-3.03,6.23-1.99,11.8,3.3,17.38,31.59,33.32,63.21,66.61,94.75,99.98,2.11,2.23,4.02,4.81,5.37,7.55,2.28,4.61,1.25,9.05-2.16,12.8-3.43,3.77-7.78,5.05-12.57,3.21-2.75-1.06-5.34-2.68-7.75-4.41-34.1-24.35-68.14-48.78-102.25-73.1-2.06-1.47-4.58-2.75-7.03-3.11-5.92-.88-11.45,2.6-13.5,7.86-2.19,5.62-.42,11.73,4.67,15.64,33.76,25.87,67.54,51.7,101.27,77.62,2.44,1.88,4.77,4.07,6.62,6.53,3.35,4.46,3.19,9.09.12,13.55-2.96,4.3-7.08,5.96-12.38,4.65-2.39-.59-4.75-1.52-6.95-2.64-28.86-14.7-57.69-29.48-86.53-44.21-7.16-3.66-13.4-2.07-16.64,4.16-3.46,6.66-1.45,12.32,5.83,16.36,20.91,11.63,41.74,23.39,62.75,34.84,22.24,12.12,44.77,23.75,61.99,43.07,1.32,1.49,2.87,2.77,4.33,4.13,14.08,13.1,28.42,25.87,45.35,35.29,27,15.02,54.39,16.61,81.49.9,21.86-12.67,40.3-29.75,56.91-48.65,9.4-10.7,13-23.86,13.07-38.09.11-21.66-2.22-43.09-5.89-64.38-3.82-22.18-5.01-44.39-1.06-66.63,2.02-11.39,4.85-22.64,7.41-34.44Z"/>
      <path class="cls-1" d="M81.56,332.95c-34.76-2.3-61.75-17.95-79.54-48.75-.56-.97-1.1-1.96-1.52-3-1.24-3.04-.14-6.25,2.58-7.72,2.67-1.45,6.1-.63,7.89,2.08,1.37,2.07,2.4,4.38,3.76,6.46,16.08,24.69,38.88,37.54,68.3,38.68,1.25.05,2.51-.03,3.74.14,3.25.44,5.26,2.22,5.36,5.63.1,3.37-1.66,5.42-4.92,6.03-1.7.32-3.47.29-5.64.46Z"/>
      <path class="cls-1" d="M290.37,78.52c-.05,3.46-2.3,6.1-5.32,6.42-3.21.34-5.8-2.08-6.64-5.76-1.53-6.66-2.58-13.53-5.02-19.85-8.61-22.34-24.4-37.82-46.59-46.78-1.15-.47-2.36-.82-3.45-1.4-3-1.59-4.12-4.68-2.86-7.57,1.27-2.91,4.14-4.29,7.43-3.21,11.27,3.69,21.37,9.54,30.3,17.32,18.15,15.8,28.73,35.72,32.04,59.54.07.49.09.99.11,1.3Z"/>
      <path class="cls-1" d="M261.34,84.61c-.07,3.47-1.85,5.47-5.01,6.2-2.82.65-5.65-1.14-6.56-4.22-.7-2.38-.99-4.88-1.67-7.27-4.58-16.16-14.24-28.29-28.97-36.4-1.58-.87-3.23-2.01-4.24-3.45-1.6-2.31-1.06-4.83.84-6.85,2.17-2.3,5-2.68,7.48-.95,6.51,4.53,13.41,8.74,19.09,14.19,10.26,9.82,16.09,22.33,18.74,36.28.16.85.2,1.73.28,2.48Z"/>
      <path class="cls-1" d="M81.38,302.96c-20.11-2.59-37.01-12.2-49.41-29.47-1.3-1.82-2.5-3.72-3.59-5.68-1.97-3.56-1.19-7.04,1.85-8.76,3.1-1.75,6.42-.79,8.5,2.8,7.16,12.34,17.36,21.12,30.74,25.96,4.4,1.59,9.14,2.31,13.76,3.25,3.84.78,6.09,3.15,5.84,6.53-.25,3.34-2.98,5.51-7.69,5.38Z"/>
      <path class="cls-1" d="M347.22,79.9c-2.57,11.8-5.39,23.05-7.41,34.44-3.95,22.24-2.76,44.45,1.06,66.63,3.66,21.29,6,42.72,5.89,64.38-.07,14.23-3.67,27.39-13.07,38.09-16.61,18.9-35.05,35.98-56.91,48.65-27.1,15.71-54.49,14.11-81.49-.9-16.94-9.42-31.28-22.19-45.35-35.29-1.46-1.36-3.01-2.65-4.33-4.13-17.22-19.32-39.75-30.95-61.99-43.07-21.01-11.45-41.84-23.21-62.75-34.84-7.28-4.05-9.29-9.71-5.83-16.36,3.24-6.23,9.48-7.82,16.64-4.16,28.84,14.74,57.67,29.51,86.53,44.21,2.2,1.12,4.56,2.05,6.95,2.64,5.3,1.31,9.42-.35,12.38-4.65,3.08-4.46,3.23-9.09-.12-13.55-1.84-2.45-4.17-4.65-6.62-6.53-33.72-25.91-67.51-51.74-101.27-77.62-5.1-3.91-6.87-10.02-4.67-15.64,2.05-5.25,7.58-8.73,13.5-7.86,2.45.36,4.97,1.64,7.03,3.11,34.12,24.32,68.16,48.75,102.25,73.1,2.41,1.72,5.01,3.35,7.75,4.41,4.79,1.84,9.14.56,12.57-3.21,3.41-3.75,4.43-8.19,2.16-12.8-1.35-2.74-3.26-5.32-5.37-7.55-31.54-33.37-63.16-66.66-94.75-99.98-5.29-5.58-6.33-11.14-3.3-17.38,4.97-10.23,17.25-12.27,25.14-4.06,30.97,32.19,61.87,64.44,92.85,96.62,2.06,2.14,4.31,4.21,6.81,5.77,4.42,2.76,9.04,2.63,13.3-.52,4.27-3.16,5.75-7.52,4.26-12.57-.87-2.95-2.09-5.89-3.67-8.52-19.11-31.86-38.32-63.66-57.48-95.49-4.58-7.62-2.54-15.59,4.86-19.42,5.27-2.73,11.16-1.59,15.58,3.21,1.42,1.54,2.56,3.37,3.68,5.16,21.75,34.93,43.45,69.88,65.21,104.8,9.27,14.88,21.24,27.06,36.75,35.42,3.22,1.74,6.91,3.08,10.52,3.5,9.25,1.1,17.38-5.59,19.38-16.01,2.05-10.64,3.27-21.45,5.36-32.08,1.56-7.93,3.6-15.8,6.03-23.51,3.99-12.63,16.93-19.86,29.89-17.18.7.15,1.37.48,2.06.72Z"/>
    </g>
  </g>
</svg>