<?xml version="1.0" encoding="UTF-8"?>
<svg xmlns="http://www.w3.org/2000/svg" version="1.1" viewBox="0 0 435 360">
  <defs>
    <style>
      .cls-1 {
        fill: #0969da;
      }
    </style>
  </defs>
  <!-- Generator: Adobe Illustrator 28.6.0, SVG Export Plug-In . SVG Version: 1.2.0 Build 709)  -->
  <g>
    <g id="Layer_2">
      <g id="Layer_1-2">
        <g>
          <path class="cls-1" d="M435,267v14c-.5,1.4-1,2.8-1.4,4.2-4.9,17.8-16.1,29.8-34,34.5-18,4.7-34.1.2-46.9-13.5-4.5-4.8-7.5-10.8-11.7-16.8-24.7,5.6-50.3,11.4-76,17.2v5.3c0,22.5-15,41.7-36.8,46.9-1.4.3-2.9.8-4.3,1.2h-13c-.8-.3-1.5-.7-2.3-.9-20.7-4.8-33.4-17.4-38-38.2-.2-1.1-.6-2.2-1-3.4h-74.1c-.2.4-.4.5-.4.7-.4,1.8-.8,3.6-1.2,5.3-3.4,13.4-11,23.8-23.2,30.4-5.2,2.8-11.1,4.1-16.7,6.2h-13c-.9-.3-1.8-.7-2.8-1-19.8-4.8-32.2-17-37.2-36.8-.3-1.1-.7-2.2-1-3.3v-13c.6-2.2,1.3-4.5,1.9-6.7,3.9-13.3,12.1-23.2,24.5-29.4,14-7,28.2-6.6,42.8-.1,9.5-14.9,19-29.6,28.6-44.5-5.5-4.3-10.6-8.3-15.7-12.2-1.2,1.1-2.1,1.9-3,2.7-25.7,22.4-65.8,11.6-76.6-20.7-.9-2.7-1.7-5.3-2.5-8v-14c.4-1.4,1-2.8,1.3-4.2,6.6-26.3,33-42.1,59-34.4,7.9,2.3,15,7.4,23.1,11.5,4-3.1,9.1-7.1,14.3-11.2-9.7-15.1-19.1-29.7-28.6-44.5-1.6.7-2.8,1.2-4,1.7-23.7,9.1-49.8-1.2-60.5-24.2-2.1-4.5-3.1-9.2-4.6-13.8v-13c.5-1.6,1-3.2,1.4-4.7C6.5,17.9,18.4,6.3,36.7,1.3c1.4-.4,2.8-.8,4.2-1.3h13c1.4.4,2.8.8,4.3,1.2,16.9,4.4,28.4,14.7,34.4,31,1.2,3.2,1.8,6.7,2.7,10.3h74.2c.2-.4.5-.7.5-1,.3-1.1.5-2.3.8-3.4,4-17.4,14.4-29.2,31.1-35.5,2.9-1.1,6-1.8,9-2.7h13c.6.3,1.2.6,1.8.8,27.5,6.3,42.5,27.9,38.3,55.8-.5,3.2.9,4,3.3,4.9,15.4,5.8,30.8,11.7,46.2,17.6,10.4,4,20.7,7.9,31.1,11.9,1-1.7,1.8-3,2.6-4.2,10.5-15.2,25-22.9,43.5-21.6,18,1.3,31.3,10.5,39.4,26.7,2.2,4.4,3.2,9.3,4.8,14v14c-.7,2-1.3,4-2,6.1-4.3,13.8-12.9,24-26.1,29.8-16,7.1-31.5,5.3-46.6-3.9-10.3,12.1-20.6,24.2-31,36.5,11.3,15.1,22.4,29.8,33.5,44.5,1.5-.8,2.5-1.3,3.6-1.8,25.7-12.6,56.8.2,66,27.3,1,2.8,1.7,5.7,2.6,8.5h0v.2ZM85.4,312.9c.3-20.9-16.3-37.9-37.3-38.1-20.8-.2-37.8,16.1-38.2,36.8-.4,21.2,16.2,38.5,37.3,38.7,21,.2,37.9-16.2,38.2-37.3h0ZM255.2,312.2c0-21-16.9-37.6-37.9-37.5-21,0-37.6,16.9-37.5,37.9,0,21,16.8,37.5,37.9,37.5s37.6-16.9,37.5-37.9h0ZM255.2,47.7c0-21-16.6-37.8-37.6-37.8s-37.8,16.7-37.8,37.6,16.6,37.8,37.6,37.8,37.8-16.6,37.8-37.6h0ZM85.4,47.7c0-21-16.8-37.8-37.7-37.8S9.9,26.6,9.9,47.6s16.9,37.9,38.2,37.8c20.7,0,37.4-16.9,37.3-37.6h0ZM387.7,150.2c20.9,0,37.6-17,37.5-38-.1-20.9-17-37.5-38-37.4s-37.6,17-37.5,38c.1,20.9,17,37.5,38,37.4ZM85.4,180.7c.5-20.8-16.2-38.2-37-38.6-20.6-.4-38,16.1-38.5,36.6-.5,21.3,16,38.6,37,39.1,20.8.4,38-16.1,38.5-37.1h0ZM425.1,273.9c0-20.9-17-37.9-37.7-37.8-20.9,0-37.9,17-37.8,37.8,0,20.9,16.9,37.9,37.7,37.9s37.8-16.9,37.8-37.8h0ZM179.8,180.1c0,20.9,17,37.8,37.8,37.7,20.9,0,37.7-17,37.6-37.9,0-20.9-16.9-37.7-37.8-37.7s-37.7,17-37.6,37.9h0ZM196,269.8c17-7.6,33.1-6.4,48.6,3.2,14-16.5,27.8-32.7,41.9-49.3-10.1-5.6-19.8-11-29.7-16.4-9.2,11.9-20.7,19-35.6,20.1-14.8,1.1-27.3-4.1-38.1-14.3-5.3,4.2-10.4,8.1-15.6,12.2,9.6,15,18.9,29.6,28.6,44.5h0ZM183,146.9c22.5-22,59.3-19.1,77,10.9,8.5-3.4,17.1-6.8,26.2-10.4-14.9-19.9-29.6-39.4-43.2-57.6-8.8,1.9-16.3,4.7-23.9,4.9-7.7.2-15.6-2-24-3.3-8.8,13.8-18.2,28.4-27.7,43.3,5.4,4.2,10.4,8.1,15.6,12.2h0ZM250.2,82.9c14.5,19.4,29.2,39,44,58.4.7,1,3.3,1.5,4.5,1.1,13.4-5.1,26.7-10.4,39.9-15.8,1.1-.4,2.4-2,2.3-3-.1-7.7-.6-15.5-1-23.9-25.9-9.9-52.7-20.2-79.4-30.4-3.5,4.7-6.9,9-10.4,13.6h0ZM342.5,254.7c-15.3-8.4-31.2-17.2-47.3-26.1-14.6,17.2-28.9,34-42.8,50.4,3.8,6.3,7.3,12.1,11,18.1,25.4-5.8,50.9-11.6,75.6-17.2,1.2-8.7,2.3-16.6,3.5-25.1h0ZM132.6,252.4c-14.9,11.6-29.6,23.1-43.9,34.2,2.5,7.1,4.8,13.8,7.2,20.7h73.4c2.4-7,4.8-13.7,7.2-20.7-14.4-11.2-29.1-22.6-43.9-34.2h0ZM88.7,73.4c14.3,11.2,29,22.6,43.9,34.2,14.9-11.6,29.6-23.1,43.9-34.2-2.5-7.1-4.8-13.8-7.2-20.5h-73.5c-2.5,7-4.8,13.6-7.2,20.5h0ZM292.9,216.1c7.5-8.8,14.9-17.4,22-26.1.7-.9.5-3.5-.3-4.5-6.6-9.2-13.4-18.3-20.4-27.2-.9-1.1-3.4-1.9-4.7-1.4-7.5,2.7-14.9,5.9-22.4,8.6-2.9,1.1-3.8,2.6-3.1,5.6,1.8,8.2,1.2,16.3-1.6,24.1-1,2.9-.4,4.1,2.1,5.5,9.2,4.9,18.4,10.1,28.2,15.5h.2ZM301.7,220.9c15.8,8.7,31,17.1,46.4,25.6,2.4-2.7,4.5-5.2,6.8-7.8-10.7-14.2-21.2-28.2-32-42.7-7.1,8.4-13.9,16.3-21.2,24.8h0ZM110.8,223c7.5,5.9,14.6,11.4,21.8,16.9,7.4-5.8,14.5-11.4,21.8-17-7.4-11.4-14.4-22.4-21.8-33.8-7.5,11.7-14.5,22.6-21.8,33.9ZM154.4,137c-7.5-5.8-14.5-11.3-21.8-17-7.3,5.7-14.5,11.3-21.8,17,7.3,11.4,14.4,22.4,21.8,33.9,7.4-11.6,14.4-22.5,21.8-33.9ZM352.8,145.7c-2.9-4-5.4-7.4-8-11-14.4,5.7-28.5,11.4-42.9,17.1,7.4,9.9,14.3,19,21.4,28.5,10-11.8,19.7-23.2,29.5-34.7h0ZM105.5,231.3c-9.5,14.8-18.7,29.2-28.1,43.8,1.7,1.5,3.1,2.8,4.7,4.2,14.2-11,28.1-21.9,42.5-33.1-6.6-5.1-12.7-9.9-19.1-14.9h0ZM77.4,84.9c9.5,14.8,18.7,29.1,28.1,43.8,6.5-5.1,12.6-9.8,19.1-14.9-14.5-11.3-28.4-22.2-42.5-33.1-1.6,1.5-3,2.7-4.7,4.2ZM183.1,80.7c-14.1,11-28.1,21.9-42.6,33.1,6.5,5.1,12.7,9.9,19.1,14.9,9.6-15,18.8-29.4,28.1-43.8-1.7-1.6-3-2.8-4.6-4.2h0ZM187.8,275.1c-9.5-14.8-18.7-29.1-28.1-43.8-6.6,5.1-12.7,9.9-19.1,14.9,14.5,11.3,28.5,22.2,42.6,33.1,1.6-1.5,3-2.7,4.7-4.3h0ZM162.1,217c5.3-4.1,10-7.8,14.4-11.2-2.5-7.1-4.8-13.7-7.2-20.6h-27.6c6.9,10.8,13.5,21.1,20.4,31.8h0ZM176.5,154.2c-4.4-3.4-9.2-7.2-14.4-11.2-6.9,10.7-13.5,21.1-20.4,31.9h27.6c2.4-6.9,4.7-13.6,7.2-20.7h0ZM123.4,174.8c-7-10.9-13.6-21.2-20.4-31.8-5.4,4.2-10.2,7.9-14.3,11.2,2.5,7.3,4.7,13.9,7.1,20.6h27.6ZM123.4,185.2h-27.5c-2.4,7-4.7,13.5-7.2,20.6,4.4,3.4,9.2,7.1,14.4,11.2,6.8-10.6,13.4-20.9,20.3-31.7h0Z"/>
          <path class="cls-1" d="M85.4,312.9c-.3,21-17.2,37.5-38.2,37.3-21.1-.2-37.7-17.4-37.3-38.7.4-20.6,17.4-37,38.2-36.8,20.9.2,37.6,17.2,37.3,38.1h0Z"/>
          <path class="cls-1" d="M255.2,312.2c0,21.1-16.6,37.9-37.5,37.9s-37.9-16.5-37.9-37.5,16.5-37.8,37.5-37.9c21.1,0,37.8,16.5,37.9,37.5h0Z"/>
          <path class="cls-1" d="M255.2,47.7c0,21-16.8,37.6-37.8,37.6s-37.6-16.8-37.6-37.8,16.8-37.7,37.8-37.6c21,0,37.6,16.8,37.6,37.8h0Z"/>
          <path class="cls-1" d="M85.4,47.7c0,20.7-16.7,37.5-37.3,37.6-21.3,0-38.2-16.6-38.2-37.8S26.8,9.8,47.7,9.8s37.7,16.8,37.7,37.8h0Z"/>
          <path class="cls-1" d="M387.7,150.2c-21.1,0-37.9-16.5-38-37.4-.1-21,16.5-37.8,37.5-38,21,0,37.9,16.5,38,37.4.1,21-16.6,37.9-37.5,38Z"/>
          <path class="cls-1" d="M85.4,180.7c-.5,20.9-17.7,37.5-38.5,37.1-21-.4-37.5-17.8-37-39.1.5-20.5,17.8-37,38.5-36.6,20.8.4,37.5,17.8,37,38.6h0Z"/>
          <path class="cls-1" d="M425.1,273.9c0,20.9-17,37.8-37.8,37.8s-37.6-16.9-37.7-37.9c0-20.8,16.9-37.7,37.8-37.8,20.8,0,37.8,17,37.7,37.8h0Z"/>
          <path class="cls-1" d="M179.8,180.1c0-20.9,16.8-37.9,37.6-37.9s37.8,16.8,37.8,37.7-16.7,37.8-37.6,37.9c-20.8,0-37.8-16.8-37.8-37.7h0Z"/>
        </g>
      </g>
    </g>
  </g>
</svg>