<?xml version="1.0" encoding="UTF-8"?>
<svg id="Layer_2" data-name="Layer 2" xmlns="http://www.w3.org/2000/svg" viewBox="0 0 435 360">
  <defs>
    <style>
      .cls-1 {
        fill: #000;
      }

      .cls-1, .cls-2 {
        stroke-width: 0px;
      }

      .cls-2 {
        fill: #fff;
      }
    </style>
  </defs>
  <g id="Layer_1-2" data-name="Layer 1">
    <g>
      <path class="cls-1" d="M435,267v14c-.45,1.39-.96,2.77-1.35,4.18-4.92,17.82-16.15,29.83-33.98,34.53-17.98,4.73-34.1.22-46.91-13.45-4.45-4.75-7.54-10.79-11.66-16.84-24.73,5.6-50.28,11.39-76.02,17.23,0,2.04,0,3.67,0,5.31.09,22.48-15.02,41.7-36.8,46.85-1.44.34-2.85.8-4.28,1.2h-13c-.77-.29-1.51-.67-2.31-.85-20.67-4.79-33.42-17.44-37.98-38.24-.25-1.12-.64-2.21-1-3.44h-74.14c-.24.4-.37.53-.4.68-.42,1.77-.79,3.56-1.24,5.32-3.39,13.44-11.01,23.83-23.2,30.36-5.19,2.78-11.13,4.15-16.73,6.16h-13c-.93-.32-1.84-.73-2.79-.96-19.81-4.75-32.17-17.03-37.16-36.76-.28-1.11-.69-2.19-1.04-3.28,0-4.33,0-8.67,0-13,.64-2.23,1.26-4.46,1.92-6.68,3.93-13.33,12.09-23.23,24.49-29.41,13.98-6.97,28.2-6.57,42.75-.11,9.52-14.86,18.98-29.6,28.56-44.54-5.52-4.31-10.58-8.26-15.66-12.22-1.25,1.13-2.09,1.93-2.96,2.69-25.66,22.42-65.8,11.57-76.64-20.72C1.57,192.36.81,189.67,0,187c0-4.67,0-9.33,0-14,.45-1.39.98-2.76,1.33-4.17,6.59-26.27,33.02-42.11,58.99-34.45,7.88,2.33,14.96,7.37,23.11,11.53,4.02-3.14,9.08-7.11,14.29-11.18-9.69-15.09-19.1-29.74-28.6-44.53-1.62.68-2.81,1.22-4.02,1.68-23.74,9.08-49.77-1.24-60.54-24.23C2.54,63.34,1.49,58.56,0,54c0-4.33,0-8.67,0-13,.47-1.58.96-3.15,1.4-4.73C6.51,17.87,18.37,6.27,36.75,1.26c1.43-.39,2.84-.84,4.25-1.26,4.33,0,8.67,0,13,0,1.42.4,2.84.83,4.27,1.2,16.85,4.38,28.41,14.68,34.41,31.03,1.19,3.25,1.78,6.72,2.7,10.31h74.19c.23-.43.46-.7.54-1.01.29-1.13.53-2.27.78-3.4,3.96-17.43,14.38-29.23,31.1-35.45C204.92,1.59,207.99.89,211,0c4.33,0,8.67,0,13,0,.6.26,1.18.63,1.81.78,27.54,6.31,42.5,27.94,38.33,55.76-.47,3.15.85,4.01,3.3,4.94,15.41,5.8,30.79,11.71,46.17,17.59,10.36,3.96,20.72,7.94,31.11,11.92,1.04-1.68,1.76-2.99,2.61-4.21,10.53-15.16,25.03-22.89,43.48-21.56,18,1.3,31.31,10.53,39.37,26.74,2.19,4.4,3.25,9.35,4.83,14.04v14c-.66,2.02-1.34,4.03-1.97,6.06-4.31,13.79-12.94,23.96-26.12,29.82-15.96,7.09-31.45,5.28-46.56-3.94-10.31,12.14-20.59,24.25-30.99,36.49,11.34,15.09,22.39,29.8,33.45,44.54,1.51-.76,2.53-1.29,3.56-1.8,25.73-12.61,56.75.21,66.04,27.32.96,2.8,1.73,5.67,2.59,8.51ZM85.37,312.87c.31-20.91-16.34-37.94-37.28-38.15-20.81-.21-37.8,16.15-38.2,36.76-.41,21.24,16.19,38.45,37.3,38.66,21.02.21,37.87-16.24,38.18-37.27ZM255.21,312.21c-.07-20.97-16.85-37.57-37.91-37.49-20.97.08-37.58,16.87-37.5,37.91.08,20.96,16.84,37.53,37.92,37.49,20.93-.03,37.56-16.86,37.49-37.92ZM255.22,47.69c.01-21.04-16.63-37.77-37.61-37.81-20.99-.04-37.8,16.69-37.8,37.62,0,21.05,16.65,37.78,37.62,37.8,21.04.02,37.79-16.64,37.8-37.61ZM85.41,47.67c-.03-21-16.77-37.79-37.7-37.8-20.98-.01-37.8,16.72-37.83,37.65-.03,21.16,16.89,37.89,38.19,37.76,20.67-.13,37.36-16.95,37.33-37.61ZM387.66,150.25c20.89-.06,37.58-16.97,37.47-37.97-.11-20.9-17.02-37.54-38.03-37.41-20.95.12-37.58,16.97-37.48,37.97.1,20.87,16.98,37.48,38.04,37.41ZM85.4,180.75c.47-20.77-16.24-38.18-37.02-38.56-20.64-.38-38,16.12-38.48,36.58-.5,21.26,15.96,38.63,37,39.05,20.82.42,38.02-16.14,38.5-37.07ZM425.14,273.91c.03-20.86-16.95-37.9-37.72-37.84-20.94.06-37.87,16.98-37.79,37.77.07,20.94,16.92,37.85,37.72,37.87,20.81.02,37.76-16.93,37.79-37.8ZM179.78,180.12c.05,20.9,17,37.8,37.83,37.71,20.87-.09,37.65-17.01,37.61-37.93-.04-20.89-16.91-37.72-37.82-37.71-20.81,0-37.67,17-37.62,37.92ZM196,269.81c17.04-7.59,33.09-6.35,48.57,3.21,14-16.49,27.77-32.69,41.87-49.29-10.13-5.6-19.82-10.97-29.72-16.44-9.16,11.86-20.74,18.96-35.59,20.08-14.82,1.13-27.34-4.1-38.11-14.31-5.3,4.16-10.36,8.13-15.57,12.22,9.62,15.01,18.95,29.56,28.55,44.53ZM183.04,146.94c22.51-22.01,59.31-19.06,77.03,10.88,8.53-3.38,17.11-6.78,26.25-10.4-14.94-19.89-29.57-39.37-43.25-57.58-8.78,1.93-16.3,4.71-23.89,4.95-7.74.24-15.56-2.03-24-3.31-8.83,13.8-18.21,28.44-27.71,43.29,5.42,4.24,10.37,8.11,15.57,12.18ZM250.18,82.91c14.52,19.36,29.16,38.96,43.97,58.43.74.98,3.27,1.53,4.51,1.06,13.37-5.09,26.67-10.38,39.92-15.77,1.06-.43,2.36-2.01,2.34-3.04-.14-7.73-.59-15.46-.97-23.91-25.9-9.91-52.73-20.17-79.42-30.38-3.54,4.66-6.85,9.01-10.35,13.62ZM342.51,254.69c-15.27-8.44-31.2-17.24-47.29-26.13-14.62,17.21-28.91,34.03-42.78,50.35,3.83,6.3,7.33,12.07,10.98,18.08,25.39-5.77,50.94-11.58,75.56-17.18,1.23-8.74,2.32-16.58,3.52-25.12ZM132.58,252.43c-14.94,11.64-29.61,23.07-43.9,34.21,2.46,7.11,4.77,13.79,7.16,20.68h73.44c2.44-7.01,4.76-13.68,7.19-20.69-14.39-11.21-29.05-22.64-43.89-34.2ZM88.66,73.36c14.34,11.17,29.02,22.61,43.92,34.22,14.91-11.62,29.59-23.06,43.91-34.22-2.48-7.11-4.81-13.77-7.16-20.5h-73.49c-2.46,7.02-4.75,13.55-7.18,20.5ZM292.94,216.08c7.5-8.81,14.9-17.35,22.05-26.11.73-.89.5-3.47-.28-4.54-6.63-9.18-13.4-18.26-20.38-27.17-.85-1.09-3.44-1.86-4.74-1.4-7.53,2.66-14.86,5.86-22.36,8.59-2.94,1.07-3.76,2.55-3.08,5.55,1.84,8.16,1.2,16.27-1.56,24.11-1.01,2.86-.36,4.13,2.15,5.48,9.25,4.94,18.39,10.08,28.2,15.49ZM301.7,220.92c15.78,8.72,31,17.13,46.41,25.64,2.36-2.72,4.51-5.18,6.79-7.8-10.66-14.2-21.2-28.24-32.04-42.67-7.13,8.36-13.89,16.3-21.16,24.83ZM110.78,223.04c7.54,5.86,14.61,11.35,21.82,16.94,7.38-5.77,14.54-11.36,21.76-17-7.38-11.45-14.43-22.38-21.81-33.83-7.51,11.69-14.5,22.58-21.77,33.89ZM154.36,136.99c-7.47-5.81-14.54-11.31-21.8-16.96-7.31,5.69-14.47,11.27-21.78,16.97,7.34,11.39,14.39,22.35,21.81,33.86,7.45-11.59,14.45-22.48,21.77-33.87ZM352.8,145.69c-2.9-3.96-5.43-7.4-8.04-10.96-14.36,5.73-28.45,11.35-42.87,17.1,7.41,9.85,14.29,19.01,21.44,28.5,10.02-11.78,19.71-23.18,29.48-34.65ZM105.49,231.32c-9.5,14.81-18.71,29.17-28.08,43.78,1.66,1.49,3.08,2.77,4.7,4.24,14.16-11.05,28.1-21.92,42.47-33.13-6.58-5.13-12.67-9.88-19.1-14.89ZM77.38,84.89c9.48,14.76,18.68,29.09,28.11,43.79,6.53-5.09,12.63-9.83,19.11-14.87-14.46-11.27-28.42-22.15-42.5-33.13-1.64,1.47-2.98,2.66-4.72,4.21ZM183.1,80.66c-14.09,10.98-28.08,21.87-42.55,33.13,6.5,5.07,12.67,9.88,19.1,14.9,9.63-15.01,18.84-29.36,28.09-43.79-1.71-1.57-3.04-2.77-4.65-4.25ZM187.77,275.08c-9.5-14.78-18.72-29.11-28.13-43.75-6.59,5.14-12.7,9.91-19.08,14.89,14.48,11.28,28.48,22.18,42.55,33.14,1.64-1.51,2.96-2.72,4.66-4.28ZM162.11,216.97c5.34-4.15,10.04-7.82,14.38-11.19-2.47-7.07-4.79-13.74-7.18-20.58h-27.55c6.93,10.82,13.51,21.09,20.35,31.77ZM176.48,154.24c-4.4-3.43-9.2-7.16-14.38-11.19-6.86,10.72-13.46,21.05-20.38,31.88h27.56c2.41-6.92,4.73-13.59,7.2-20.68ZM123.43,174.85c-6.99-10.9-13.62-21.24-20.4-31.81-5.38,4.21-10.15,7.95-14.28,11.18,2.5,7.33,4.73,13.86,7.05,20.63h27.63ZM123.38,185.22h-27.54c-2.44,6.99-4.72,13.52-7.18,20.55,4.37,3.4,9.16,7.12,14.39,11.19,6.82-10.65,13.39-20.9,20.33-31.74Z"/>
      <path class="cls-2" d="M435,106c-1.58-4.7-2.65-9.65-4.83-14.04-8.06-16.2-21.37-25.44-39.37-26.74-18.45-1.33-32.94,6.4-43.48,21.56-.85,1.22-1.57,2.53-2.61,4.21-10.39-3.98-20.75-7.96-31.11-11.92-15.38-5.88-30.76-11.79-46.17-17.59-2.45-.92-3.77-1.78-3.3-4.94,4.16-27.82-10.8-49.45-38.33-55.76-.63-.14-1.2-.51-1.81-.78,70.33,0,140.67,0,211,0v106Z"/>
      <path class="cls-2" d="M224,360c1.42-.4,2.84-.86,4.28-1.2,21.79-5.15,36.89-24.36,36.8-46.85,0-1.64,0-3.27,0-5.31,25.74-5.83,51.29-11.62,76.02-17.23,4.12,6.05,7.21,12.09,11.66,16.84,12.82,13.67,28.94,18.18,46.91,13.45,17.83-4.69,29.06-16.71,33.98-34.53.39-1.41.9-2.79,1.35-4.18v79h-211Z"/>
      <path class="cls-2" d="M435,267c-.86-2.84-1.62-5.71-2.59-8.51-9.28-27.1-40.3-39.92-66.04-27.32-1.03.5-2.05,1.03-3.56,1.8-11.07-14.73-22.12-29.44-33.45-44.54,10.4-12.24,20.68-24.36,30.99-36.49,15.11,9.22,30.6,11.04,46.56,3.94,13.18-5.86,21.81-16.02,26.12-29.82.63-2.03,1.31-4.04,1.97-6.06v147Z"/>
      <path class="cls-2" d="M0,187c.81,2.67,1.57,5.36,2.45,8,10.84,32.3,50.98,43.15,76.64,20.72.87-.76,1.72-1.55,2.96-2.69,5.08,3.96,10.14,7.91,15.66,12.22-9.58,14.94-19.03,29.69-28.56,44.54-14.55-6.46-28.76-6.86-42.75.11-12.4,6.18-20.56,16.09-24.49,29.41-.65,2.22-1.28,4.45-1.92,6.68,0-39.67,0-79.33,0-119Z"/>
      <path class="cls-2" d="M0,54c1.49,4.56,2.54,9.34,4.56,13.65,10.77,22.99,36.8,33.31,60.54,24.23,1.22-.47,2.41-1,4.02-1.68,9.5,14.79,18.91,29.44,28.6,44.53-5.21,4.08-10.27,8.04-14.29,11.18-8.15-4.16-15.23-9.21-23.11-11.53-25.96-7.67-52.39,8.17-58.99,34.45C.98,170.24.45,171.61,0,173,0,133.33,0,93.67,0,54Z"/>
      <path class="cls-2" d="M211,0c-3.01.89-6.08,1.59-9.01,2.69-16.71,6.22-27.13,18.02-31.1,35.45-.26,1.13-.5,2.27-.78,3.4-.08.31-.3.59-.54,1.01h-74.19c-.92-3.59-1.51-7.06-2.7-10.31C86.68,15.88,75.12,5.58,58.27,1.2,56.84.83,55.42.4,54,0c52.33,0,104.67,0,157,0Z"/>
      <path class="cls-2" d="M54,360c5.6-2.01,11.54-3.38,16.73-6.16,12.19-6.53,19.81-16.92,23.2-30.36.45-1.77.82-3.55,1.24-5.32.04-.15.16-.29.4-.68h74.14c.36,1.23.75,2.32,1,3.44,4.57,20.79,17.31,33.44,37.98,38.24.79.18,1.54.56,2.31.85H54Z"/>
      <path class="cls-2" d="M41,0c-1.42.42-2.83.87-4.25,1.26C18.37,6.27,6.51,17.87,1.4,36.27.96,37.85.47,39.42,0,41V0C13.67,0,27.33,0,41,0Z"/>
      <path class="cls-2" d="M0,319c.35,1.09.76,2.17,1.04,3.28,4.99,19.73,17.35,32.01,37.16,36.76.95.23,1.86.64,2.79.96H0C0,346.33,0,332.67,0,319Z"/>
      <path class="cls-1" d="M85.37,312.87c-.31,21.03-17.16,37.48-38.18,37.27-21.1-.21-37.71-17.42-37.3-38.66.4-20.61,17.39-36.96,38.2-36.76,20.94.21,37.59,17.25,37.28,38.15Z"/>
      <path class="cls-1" d="M255.21,312.21c.07,21.06-16.56,37.88-37.49,37.92-21.09.03-37.85-16.54-37.92-37.49-.08-21.04,16.53-37.83,37.5-37.91,21.06-.08,37.84,16.51,37.91,37.49Z"/>
      <path class="cls-1" d="M255.22,47.69c-.01,20.97-16.76,37.64-37.8,37.61-20.96-.02-37.61-16.76-37.62-37.8,0-20.93,16.81-37.66,37.8-37.62,20.98.04,37.63,16.77,37.61,37.81Z"/>
      <path class="cls-1" d="M85.41,47.67c.03,20.67-16.66,37.49-37.33,37.61-21.3.13-38.22-16.6-38.19-37.76.03-20.93,16.85-37.66,37.83-37.65,20.92.01,37.66,16.8,37.7,37.8Z"/>
      <path class="cls-1" d="M387.66,150.25c-21.06.07-37.94-16.54-38.04-37.41-.1-21,16.53-37.84,37.48-37.97,21.01-.12,37.92,16.51,38.03,37.41.11,21-16.57,37.9-37.47,37.97Z"/>
      <path class="cls-1" d="M85.4,180.75c-.48,20.93-17.68,37.49-38.5,37.07-21.04-.42-37.49-17.79-37-39.05.48-20.46,17.84-36.96,38.48-36.58,20.78.38,37.5,17.79,37.02,38.56Z"/>
      <path class="cls-1" d="M425.14,273.91c-.03,20.87-16.98,37.82-37.79,37.8-20.8-.02-37.65-16.93-37.72-37.87-.07-20.79,16.85-37.7,37.79-37.77,20.76-.06,37.75,16.98,37.72,37.84Z"/>
      <path class="cls-1" d="M179.78,180.12c-.05-20.93,16.8-37.92,37.62-37.92,20.91,0,37.78,16.81,37.82,37.71.04,20.92-16.74,37.84-37.61,37.93-20.83.09-37.78-16.81-37.83-37.71Z"/>
      <path class="cls-2" d="M196,269.81c-9.6-14.97-18.93-29.52-28.55-44.53,5.21-4.09,10.27-8.06,15.57-12.22,10.77,10.21,23.29,15.44,38.11,14.31,14.85-1.13,26.43-8.22,35.59-20.08,9.89,5.47,19.59,10.84,29.72,16.44-14.1,16.6-27.87,32.81-41.87,49.29-15.48-9.55-31.54-10.8-48.57-3.21Z"/>
      <path class="cls-2" d="M183.04,146.94c-5.2-4.07-10.16-7.94-15.57-12.18,9.5-14.84,18.88-29.49,27.71-43.29,8.45,1.27,16.26,3.54,24,3.31,7.59-.23,15.11-3.01,23.89-4.95,13.68,18.21,28.31,37.69,43.25,57.58-9.14,3.62-17.72,7.02-26.25,10.4-17.72-29.94-54.52-32.89-77.03-10.88Z"/>
      <path class="cls-2" d="M250.18,82.91c3.5-4.61,6.81-8.96,10.35-13.62,26.69,10.21,53.52,20.47,79.42,30.38.38,8.45.83,16.18.97,23.91.02,1.02-1.29,2.61-2.34,3.04-13.25,5.39-26.55,10.68-39.92,15.77-1.23.47-3.76-.08-4.51-1.06-14.81-19.47-29.45-39.07-43.97-58.43Z"/>
      <path class="cls-2" d="M342.51,254.69c-1.2,8.55-2.3,16.38-3.52,25.12-24.63,5.6-50.17,11.4-75.56,17.18-3.65-6.01-7.16-11.78-10.98-18.08,13.86-16.32,28.15-33.14,42.78-50.35,16.09,8.89,32.03,17.7,47.29,26.13Z"/>
      <path class="cls-2" d="M132.58,252.43c14.84,11.56,29.5,22.99,43.89,34.2-2.43,7-4.75,13.67-7.19,20.69h-73.44c-2.39-6.9-4.7-13.57-7.16-20.68,14.29-11.14,28.96-22.57,43.9-34.21Z"/>
      <path class="cls-2" d="M88.66,73.36c2.43-6.95,4.72-13.48,7.18-20.5h73.49c2.35,6.73,4.68,13.4,7.16,20.5-14.32,11.16-29,22.6-43.91,34.22-14.9-11.61-29.58-23.05-43.92-34.22Z"/>
      <path class="cls-2" d="M292.94,216.08c-9.81-5.41-18.95-10.55-28.2-15.49-2.52-1.35-3.16-2.62-2.15-5.48,2.76-7.84,3.4-15.95,1.56-24.11-.68-3.01.14-4.48,3.08-5.55,7.5-2.73,14.83-5.94,22.36-8.59,1.3-.46,3.88.31,4.74,1.4,6.98,8.92,13.75,17.99,20.38,27.17.78,1.08,1,3.65.28,4.54-7.14,8.75-14.54,17.3-22.05,26.11Z"/>
      <path class="cls-2" d="M301.7,220.92c7.27-8.53,14.03-16.47,21.16-24.83,10.84,14.43,21.38,28.47,32.04,42.67-2.28,2.62-4.43,5.09-6.79,7.8-15.41-8.51-30.63-16.92-46.41-25.64Z"/>
      <path class="cls-2" d="M110.78,223.04c7.26-11.31,14.26-22.2,21.77-33.89,7.38,11.45,14.43,22.38,21.81,33.83-7.22,5.64-14.38,11.24-21.76,17-7.21-5.59-14.28-11.08-21.82-16.94Z"/>
      <path class="cls-2" d="M154.36,136.99c-7.32,11.39-14.32,22.28-21.77,33.87-7.42-11.52-14.47-22.47-21.81-33.86,7.31-5.69,14.47-11.27,21.78-16.97,7.26,5.65,14.33,11.15,21.8,16.96Z"/>
      <path class="cls-2" d="M352.8,145.69c-9.76,11.48-19.45,22.87-29.48,34.65-7.14-9.5-14.03-18.66-21.44-28.5,14.42-5.75,28.51-11.37,42.87-17.1,2.61,3.55,5.13,7,8.04,10.96Z"/>
      <path class="cls-2" d="M105.49,231.32c6.43,5.01,12.52,9.76,19.1,14.89-14.37,11.21-28.31,22.09-42.47,33.13-1.63-1.46-3.05-2.74-4.7-4.24,9.37-14.61,18.58-28.97,28.08-43.78Z"/>
      <path class="cls-2" d="M77.38,84.89c1.74-1.56,3.08-2.75,4.72-4.21,14.08,10.98,28.04,21.86,42.5,33.13-6.48,5.04-12.58,9.79-19.11,14.87-9.43-14.69-18.64-29.03-28.11-43.79Z"/>
      <path class="cls-2" d="M183.1,80.66c1.61,1.47,2.93,2.68,4.65,4.25-9.26,14.43-18.46,28.78-28.09,43.79-6.44-5.02-12.6-9.83-19.1-14.9,14.47-11.27,28.45-22.16,42.55-33.13Z"/>
      <path class="cls-2" d="M187.77,275.08c-1.69,1.56-3.01,2.77-4.66,4.28-14.08-10.96-28.07-21.86-42.55-33.14,6.38-4.98,12.49-9.75,19.08-14.89,9.41,14.64,18.63,28.97,28.13,43.75Z"/>
      <path class="cls-2" d="M162.11,216.97c-6.84-10.68-13.42-20.95-20.35-31.77h27.55c2.39,6.84,4.71,13.51,7.18,20.58-4.34,3.37-9.04,7.04-14.38,11.19Z"/>
      <path class="cls-2" d="M176.48,154.24c-2.47,7.09-4.79,13.76-7.2,20.68h-27.56c6.92-10.82,13.53-21.15,20.38-31.88,5.18,4.03,9.98,7.77,14.38,11.19Z"/>
      <path class="cls-2" d="M123.43,174.85h-27.63c-2.31-6.77-4.54-13.3-7.05-20.63,4.13-3.23,8.91-6.97,14.28-11.18,6.78,10.58,13.41,20.92,20.4,31.81Z"/>
      <path class="cls-2" d="M123.38,185.22c-6.94,10.84-13.51,21.09-20.33,31.74-5.22-4.06-10.01-7.79-14.39-11.19,2.45-7.03,4.74-13.56,7.18-20.55h27.54Z"/>
    </g>
  </g>
</svg>