<?xml version="1.0" encoding="UTF-8"?>
<svg id="Layer_1" data-name="Layer 1" xmlns="http://www.w3.org/2000/svg" version="1.1" viewBox="0 0 24 24">
  <defs>
    <style>
      .cls-1 {
        fill: #0984e3;
        stroke-width: 0px;
      }
    </style>
  </defs>
  <path class="cls-1" d="M12.1,0c-1.6,0-3,1.3-3,3,0,0,0,0,0,0,0,.6.2,1.2.5,1.7.4-1,1.4-1.7,2.5-1.7,1.1,0,2.1.7,2.5,1.7.3-.5.5-1.1.5-1.6C15.1,1.3,13.7,0,12.1,0c0,0,0,0,0,0ZM5.7,2.7c-1.6,0-3,1.3-3,3h0c0,1.6,1.3,3,3,3h0c1.6,0,3-1.3,3-3h0c0-1.7-1.3-3-3-3,0,0,0,0,0,0ZM18.4,2.7c-1.6,0-3,1.3-3,3h0c0,1.6,1.3,3,3,3h0c1.6,0,3-1.3,3-3h0c0-1.7-1.3-3-3-3,0,0,0,0,0,0ZM12.1,3.4c-1.2,0-2.1,1-2.1,2.1,0,1.2,1,2.1,2.1,2.1,1.2,0,2.1-1,2.1-2.1h0c0-1.2-1-2.1-2.1-2.1h0ZM9.1,6c-.2,1.6-1.4,2.8-3,3.1.4.3.9.5,1.4.5,1.2,0,2.1-1,2.1-2.1,0,0,0,0,0,0,0-.5-.2-1-.5-1.4h0ZM14.9,6.1c-.3.4-.5.9-.5,1.4,0,1.2,1,2.1,2.1,2.1.5,0,1-.2,1.4-.5-1.6-.2-2.8-1.4-3-3ZM3,9C1.3,9,0,10.4,0,12c0,0,0,0,0,0,0,1.6,1.3,3,3,3h0c.6,0,1.2-.2,1.7-.5-1-.4-1.7-1.4-1.7-2.5,0-1.1.7-2.1,1.7-2.5-.5-.3-1.1-.5-1.7-.5ZM21,9c-.6,0-1.2.2-1.7.5,1,.4,1.7,1.4,1.7,2.5,0,1.1-.7,2.1-1.7,2.5.5.3,1.1.5,1.7.5,1.6,0,3-1.3,3-3s-1.3-3-3-3h0ZM5.6,9.9c-1.2,0-2.1,1-2.1,2.1,0,1.2,1,2.1,2.1,2.1,1.2,0,2.1-1,2.1-2.1,0-1.2-1-2.1-2.1-2.1ZM18.4,9.9c-1.2,0-2.1,1-2.1,2.1,0,1.2,1,2.1,2.1,2.1,1.2,0,2.1-1,2.1-2.1,0-1.2-1-2.1-2.1-2.1h0ZM7.5,14.4c-.5,0-1,.2-1.4.5,1.6.2,2.8,1.5,3,3,.3-.4.5-.9.5-1.4,0-1.2-1-2.1-2.1-2.1ZM16.6,14.4c-1.2,0-2.1,1-2.1,2.1,0,.5.2,1,.5,1.4.2-1.6,1.5-2.8,3-3-.4-.3-.9-.5-1.4-.5h0ZM5.6,15.4c-1.6,0-3,1.3-3,3s0,0,0,0c0,1.6,1.3,3,3,3h0c1.6,0,3-1.3,3-3,0,0,0,0,0,0,0-1.6-1.3-3-3-3,0,0,0,0,0,0ZM18.3,15.4c-1.6,0-3,1.3-3,3h0c0,1.7,1.3,3,3,3h0c1.6,0,3-1.3,3-3h0c0-1.7-1.3-3-3-3h0ZM12,16.3c-1.2,0-2.1,1-2.1,2.1,0,1.2,1,2.1,2.1,2.1,1.2,0,2.1-1,2.1-2.1,0-1.2-1-2.1-2.1-2.1h0ZM14.3,19.8c-.5.8-1.3,1.3-2.3,1.3-.9,0-1.7-.4-2.2-1.2-.3.4-.5.9-.5,1.5,0,1.5,1.2,2.6,2.7,2.6h0c1.5,0,2.7-1.2,2.7-2.6h0c0-.6-.2-1.1-.6-1.6h0Z"/>
</svg>