<?xml version="1.0" encoding="UTF-8"?>
<svg id="Layer_1" data-name="Layer 1" xmlns="http://www.w3.org/2000/svg" version="1.1" viewBox="0 0 16 16">
  <defs>
    <style>
      .cls-1 {
        fill-rule: evenodd;
      }

      .cls-1, .cls-2 {
        fill: #0984e3;
        stroke-width: 0px;
      }
    </style>
  </defs>
  <path class="cls-2" d="M11,6c0,1.7-1.3,3-3,3s-3-1.3-3-3,1.3-3,3-3,3,1.3,3,3"/>
  <path class="cls-1" d="M0,8C0,3.6,3.6,0,8,0s8,3.6,8,8-3.6,8-8,8S0,12.4,0,8M8,1c-3.9,0-7,3.1-7,7,0,1.6.5,3.1,1.5,4.4.7-1.1,2.3-2.4,5.5-2.4s4.8,1.2,5.5,2.4c2.4-3,1.9-7.4-1.1-9.8-1.2-1-2.8-1.5-4.4-1.5"/>
</svg>