<?xml version="1.0" encoding="UTF-8"?>
<svg id="Layer_1" data-name="Layer 1" xmlns="http://www.w3.org/2000/svg" version="1.1" viewBox="0 0 24 24">
  <defs>
    <style>
      .cls-1 {
        fill: #0984e3;
        stroke-width: 0px;
      }
    </style>
  </defs>
  <path class="cls-1" d="M14.2.2l.9.2.7.3.6.3.5.3.3.3.2.3.2.3v.3c.1,0,.1.3.1.3v.2s0,.1,0,.1v6s-.2.6-.2.6l-.2.5-.3.4-.3.3-.3.2-.4.2h-.4c0,.1-.3.2-.3.2h-.3c0,0-.3.1-.3.1h-.2s-6,0-6,0h-.7c0,0-.6.2-.6.2l-.5.2-.4.3-.3.3-.3.4-.2.4-.2.4v.4c0,0-.2.3-.2.3v.3s0,.2,0,.2v3.1h-2.4s-.3-.1-.3-.1h-.3c0-.1-.3-.3-.3-.3l-.4-.3-.4-.4-.4-.5-.3-.6-.3-.7-.2-.9v-1.1c-.1,0-.2-1.2-.2-1.2v-1.2C0,10.8.2,9.7.2,9.7l.2-.9.3-.7.4-.6.4-.4.4-.3.4-.2.4-.2h.4c0,0,.3-.2.3-.2h.2s.2,0,.2,0h0s8.2,0,8.2,0v-.8h-5.8v-2.8s0-.4,0-.4v-.3c0,0,.2-.3.2-.3l.2-.3.2-.3.3-.2.4-.2.4-.2.5-.2h.6c0-.1.6-.2.6-.2h.7c0,0,.8,0,.8,0h.8s1.3,0,1.3,0h1.1ZM7.9,2.2l-.2.3v.4c0,0,0,.4,0,.4l.2.3.3.2h.4c0,0,.4,0,.4,0l.3-.2.2-.3v-.4c0,0,0-.4,0-.4l-.2-.3-.3-.2h-.4c0,0-.4,0-.4,0l-.3.2ZM21,6.1h.3c0,0,.3.2.3.2l.4.2.4.3.4.3.4.5.3.6.3.7.2.9v1c.1,0,.2,1.2.2,1.2v1.2c0,0-.2,1-.2,1l-.2.9-.3.7-.4.6-.4.5-.4.3-.4.2-.4.2h-.4c0,0-.3.1-.3.1h-.2s-.2,0-.2,0h-8.2v.8h5.8v2.8s0,.4,0,.4v.3s-.2.3-.2.3l-.2.3-.2.2-.3.2-.4.2-.4.2h-.5c0,.1-.6.3-.6.3h-.6c0,0-.7.2-.7.2h-.8s-.8,0-.8,0h-1.3s-1.1-.2-1.1-.2l-.9-.2-.7-.2-.6-.3-.4-.3-.3-.3-.2-.3-.2-.3v-.3c0,0-.1-.2-.1-.2v-.2s0-.1,0-.1v-6c0,0,.2-.5.2-.5l.2-.5.3-.4.3-.3.3-.2.3-.2h.3c0-.1.3-.2.3-.2h.3c0,0,.3-.1.3-.1h.2s.1,0,.1,0h6.5c0,0,.6-.2.6-.2l.5-.2.4-.3.3-.3.3-.4.2-.4v-.4c.1,0,.2-.4.2-.4v-.3c0,0,.1-.3.1-.3v-.2s0-3.1,0-3.1h2.2s.2,0,.2,0ZM14.6,20.4l-.2.3v.4c0,0,0,.4,0,.4l.2.3.3.2h.4c0,0,.4,0,.4,0l.3-.2.2-.3v-.4c0,0,0-.4,0-.4l-.2-.3-.3-.2h-.4c0,0-.4,0-.4,0l-.3.2Z"/>
</svg>