<?xml version="1.0" encoding="UTF-8"?>
<svg xmlns="http://www.w3.org/2000/svg" version="1.1" viewBox="0 0 24 24">
  <defs>
    <style>
      .cls-1 {
        fill: #0969da;
      }
    </style>
  </defs>
  <!-- Generator: Adobe Illustrator 28.6.0, SVG Export Plug-In . SVG Version: 1.2.0 Build 709)  -->
  <g>
    <g id="Layer_1">
      <path class="cls-1" d="M14.2.2l.9.2.7.3.6.3.5.3.3.3.2.3.2.3v.3c.1,0,.1.3.1.3v.2h0v6.1l-.2.6-.2.5-.3.4-.3.3-.3.2-.4.2h-.4c0,.1-.3.2-.3.2h-.6c0,.1-.2.1-.2.1h-6.7l-.6.2-.5.2-.4.3-.3.3-.3.4-.2.4-.2.4v.4l-.2.3v3.6h-2.7c0-.1-.3-.1-.3-.1,0-.1-.3-.3-.3-.3l-.4-.3-.4-.4-.4-.5-.3-.6L0,15.2l-.2-.9v-1.1c-.1,0-.2-1.2-.2-1.2v-1.2c.4,0,.6-1.1.6-1.1l.2-.9.3-.7.4-.6.4-.4.4-.3.4-.2.4-.2h.4l.3-.2h8.6v-.8h-5.8V1.9l.2-.3.2-.3.2-.3.3-.2.4-.2.4-.2.5-.2h.6C9,.1,9.6,0,9.6,0h4.7v.2ZM7.9,2.2l-.2.3v.8l.2.3.3.2h.8l.3-.2.2-.3v-.8l-.2-.3-.3-.2h-.8s-.3.2-.3.2ZM21,6.1h.3l.3.2.4.2.4.3.4.3.4.5.3.6.3.7.2.9v1c.1,0,.2,1.2.2,1.2v1.2l-.2,1-.2.9-.3.7-.4.6-.4.5-.4.3-.4.2-.4.2h-.7c0,.1-.2.1-.2.1h-8.4v.8h5.8v3.5l-.2.3-.2.3-.2.2-.3.2-.4.2-.4.2h-.5c0,.1-.6.3-.6.3h-.6l-.7.2h-2.9l-1.1-.2-.9-.2-.7-.2-.6-.3-.4-.3-.3-.3-.2-.3-.2-.3v-.5c0,0,0-.2,0-.2h0v-6.1l.2-.5.2-.5.3-.4.3-.3.3-.2.3-.2h.3c0-.1.3-.2.3-.2h.6c0-.1.2-.1.2-.1h6.6l.6-.2.5-.2.4-.3.3-.3.3-.4.2-.4v-.4c.1,0,.2-.4.2-.4v-.6c.1,0,.1-.2.1-.2v-3.1h2.4-.1ZM14.6,20.4l-.2.3v.8l.2.3.3.2h.8l.3-.2.2-.3v-.8l-.2-.3-.3-.2h-.8l-.3.2Z"/>
    </g>
  </g>
</svg>