<?xml version="1.0" encoding="UTF-8"?>
<svg id="Layer_1" data-name="Layer 1" xmlns="http://www.w3.org/2000/svg" version="1.1" viewBox="0 0 24 24">
  <defs>
    <style>
      .cls-1 {
        fill: #0984e3;
        stroke-width: 0px;
      }
    </style>
  </defs>
  <path class="cls-1" d="M12,2.7C5.4,2.7,0,6.3,0,10.8s4.1,7.1,9.6,7.9v-2.4c-2.9-.9-4.9-2.8-4.9-4.9,0-3,4.1-5.5,9.1-5.5s8.8,1.7,8.8,5.5-1,3.4-2.7,4.3c0,0,.2.1.3.2.2.1.2.4.4.5,2.1-1.4,3.4-3.4,3.4-5.6,0-4.4-5.4-8-12-8ZM9.9,7.7v13.5h4.1s0-5.3,0-5.3h1.1c.2,0,.3,0,.5.2.3.2.7,1,.7,1l2.2,4.1h4.6s-2.9-4.8-2.9-4.8c0,0,0-.2-.3-.4-.2-.2-.4-.3-.6-.4-.4-.2-1.1-.4-1.1-.4,0,0,3.6-.3,3.6-3.8s-3.7-3.6-3.7-3.6h-8.2ZM14,10.7h2.5s1.1,0,1.1,1.1-1.1,1.2-1.1,1.2h-2.5v-2.3ZM15.8,16.8c-.5,0-1,0-1.5,0v1.8c.8,0,1.6-.3,2.4-.5l-.5-.9s-.1-.2-.2-.4c0,0,0,0-.1-.1Z"/>
</svg>