<?xml version="1.0" encoding="UTF-8"?>
<svg xmlns="http://www.w3.org/2000/svg" version="1.1" viewBox="0 0 24 24">
  <defs>
    <style>
      .cls-1 {
        fill: #0969da;
      }
    </style>
  </defs>
  <!-- Generator: Adobe Illustrator 28.6.0, SVG Export Plug-In . SVG Version: 1.2.0 Build 709)  -->
  <g>
    <g id="Layer_1">
      <path class="cls-1" d="M19.6,0c-.8,0-1.5.2-2.1.6-.6.4-1,.9-1.2,1.7,0,0,0,.3-.1.4v4.4h0c0,0,0,.3.1.4.2.7.6,1.3,1.2,1.7.6.4,1.3.6,2.1.6s1.5-.2,2.1-.6c.6-.4.9-.9,1.2-1.7,0-.2.1-.6.2-.9v-2s0,0-.1,0h-3.1s-.1,0-.1,0v1s0,0,.1,0h1.7v.9c0,.2-.1.4-.1.6-.1.4-.3.7-.6.9-.3.2-.7.4-1.2.4s-.9-.1-1.2-.4c-.3-.2-.5-.5-.7-.9,0-.2-.1-.5-.1-.8v-3.2c0-.3,0-.5.1-.8.1-.4.4-.8.7-1,.3-.2.6-.4,1.1-.4s.8,0,1.1.3c.3.2.5.5.8.9,0,0,.1,0,.2,0l1-.4v-.2c-.1-.3-.3-.5-.5-.7s-.4-.4-.7-.6C21.2.1,20.9,0,20.6,0c-.4,0-.8-.2-1.1,0v.2ZM8.2,5.8H.9v.8l1.1.2c.7,0,1.2.5,1.2,2.3v11.3c0,1.8-.4,2.1-1.2,2.3l-1.1.2v.8h7.2v-.8l-1.5-.2c-.8-.1-1.2-.5-1.2-2.3v-4.8h2.2c1.7,3.1,3.4,5.5,4.4,6.6.9,1,2.2,1.7,3.8,1.7s1,0,1.3-.2v-.7c-1,0-2.1-.7-2.8-1.5-1.3-1.4-2.9-3.6-4.4-6.1,2.3-.5,4-2.7,4-4.9,0-3.2-2.5-4.7-5.8-4.7h.1ZM7.7,7.1c2.4,0,3.8,1.3,3.8,3.6s-1.5,3.8-4.1,3.8-1.4,0-2.1,0v-7.2h2.3v-.2Z"/>
    </g>
  </g>
</svg>