<?xml version="1.0" encoding="UTF-8"?>
<svg id="Layer_1" data-name="Layer 1" xmlns="http://www.w3.org/2000/svg" version="1.1" viewBox="0 0 24 24">
  <defs>
    <style>
      .cls-1 {
        fill: #0984e3;
        stroke-width: 0px;
      }
    </style>
  </defs>
  <path class="cls-1" d="M19.6,0c-.8,0-1.5.2-2.1.6-.6.4-1,.9-1.2,1.7,0,.1,0,.3-.1.4,0,.2,0,.4,0,.5,0,.2,0,.5,0,.7,0,.3,0,.6,0,1,0,.3,0,.7,0,1,0,.2,0,.5,0,.7,0,.2,0,.4,0,.5h0c0,.1,0,.3.1.4.2.7.6,1.3,1.2,1.7.6.4,1.3.6,2.1.6s1.5-.2,2.1-.6c.6-.4.9-.9,1.2-1.7,0-.2.1-.6.2-.9,0-.4,0-.8,0-1.2v-.8c0,0,0-.1-.1-.1h-3.1c0,0-.1,0-.1.1v1c0,0,0,.1.1.1h1.7c0,0,0,0,0,0,0,.4,0,.6,0,.9,0,.2-.1.4-.1.6-.1.4-.3.7-.6.9-.3.2-.7.4-1.2.4s-.9-.1-1.2-.4c-.3-.2-.5-.5-.7-.9,0-.2-.1-.5-.1-.8,0-.2,0-.4,0-.7,0-.3,0-.6,0-.9,0-.3,0-.6,0-.9,0-.2,0-.4,0-.7,0-.3,0-.5.1-.8.1-.4.4-.8.7-1,.3-.2.6-.4,1.1-.4s.8,0,1.1.3c.3.2.5.5.8.9,0,0,.1.1.2,0l1-.4c0,0,0-.1,0-.2-.1-.3-.3-.5-.5-.7-.2-.2-.4-.4-.7-.6-.3-.2-.6-.3-.9-.4-.4-.1-.8-.2-1.1-.1ZM8.2,5.8c-1.7,0-3,0-4.3,0s-2.3,0-3,0v.8l1.1.2c.7.1,1.2.5,1.2,2.3v11.3c0,1.8-.4,2.1-1.2,2.3l-1.1.2v.8c.8,0,2.1,0,3.5,0s3,0,3.7,0v-.8l-1.5-.2c-.8-.1-1.2-.5-1.2-2.3v-4.8c.7,0,1.3,0,2.2,0,1.7,3.1,3.4,5.5,4.4,6.6.9,1,2.2,1.7,3.8,1.7s1,0,1.3-.2v-.7c-1,0-2.1-.7-2.8-1.5-1.3-1.4-2.9-3.6-4.4-6.1,2.3-.5,4-2.7,4-4.9,0-3.2-2.5-4.7-5.8-4.7h0ZM7.7,7.1c2.4,0,3.8,1.3,3.8,3.6s-1.5,3.8-4.1,3.8-1.4,0-2.1,0v-7.2c.7,0,1.5,0,2.3,0h0Z"/>
</svg>