<?xml version="1.0" encoding="UTF-8"?>
<svg id="Layer_2" data-name="Layer 2" xmlns="http://www.w3.org/2000/svg" viewBox="0 0 319.74 366.9">
  <defs>
    <style>
      .cls-1 {
        fill: #000;
      }

      .cls-1, .cls-2, .cls-3, .cls-4 {
        stroke-width: 0px;
      }

      .cls-2 {
        fill: #e5f2fa;
      }

      .cls-3 {
        fill: #e2f0fa;
      }

      .cls-4 {
        fill: none;
      }
    </style>
  </defs>
  <g id="Layer_1-2" data-name="Layer 1">
    <g>
      <path class="cls-4" d="M319.66,183.32c0,29.14-.07,58.29.08,87.43.02,3.64-1.16,5.7-4.28,7.5-50.51,29.02-100.98,58.12-151.39,87.31-2.95,1.71-5.11,1.83-8.16.06-50.54-29.32-101.13-58.52-151.79-87.63-3.04-1.75-4.09-3.72-4.09-7.11C.11,212.6.11,154.31,0,96.02c0-3.68,1.32-5.63,4.43-7.41C54.78,59.65,105.09,30.61,155.35,1.48c3.25-1.88,5.64-2.03,9.05-.06,50.39,29.24,100.86,58.32,151.38,87.33,3.06,1.76,3.96,3.79,3.94,7.15-.11,29.14-.06,58.29-.07,87.43Z"/>
      <path class="cls-1" d="M292.71,79.46c7.25,4.08,14.47,8.22,21.77,12.2,2.72,1.48,2.14,3.88,2.14,6.12.03,35.98.02,71.96.02,107.95,0,21.16-.07,42.31.07,63.47.02,3.44-1.1,5.36-4.09,7.08-48.94,28.13-97.84,56.32-146.64,84.69-4.43,2.58-7.58,2.6-12.1-.04-48.35-28.16-96.83-56.08-145.37-83.9-4.02-2.31-5.31-4.99-5.29-9.5.14-56.14.15-112.28,0-168.42-.01-4.6,1.35-7.33,5.48-9.4,6.39-3.2,12.51-6.94,18.74-10.45,3.09-.75,5.21,1,6.88,3.09,4.94,6.18,11.38,7.77,19.02,7.76,70.9-.14,141.79-.14,212.69,0,8.17.02,15.12-1.63,20.14-8.57,1.57-2.17,3.79-3.2,6.55-2.06Z"/>
      <path class="cls-1" d="M292.71,79.46c-2.47.57-3.91,2.38-5.26,4.32-4.34,6.21-10.16,8.82-17.88,8.81-72.88-.16-145.75-.15-218.63,0-7.55.02-13.67-1.69-18.07-8.24-1.35-2.01-3.6-3.41-5.44-5.09,21.88-12.71,43.74-25.45,65.64-38.12,20.75-12.01,41.59-23.87,62.29-35.97,3.25-1.9,5.63-2.03,9.02-.07,41.77,24.22,83.65,48.25,125.5,72.35,1,.58,1.89,1.34,2.83,2.01Z"/>
      <path class="cls-2" d="M173.79,143.05c-5.17,10.6-9.24,21.1-11.69,32.14-.69,3.12-2.45,7.84.55,9.24,3.52,1.63,6.01-2.86,7.68-5.64,6.76-11.3,13.17-22.85,12.74-36.65-.07-2.2.63-2.82,2.64-3.14,7.23-1.13,9.5.14,10.28,6.35,4.44-3.4,8.56-7.01,14.13-8.22,8.18-1.78,12.24,1.38,10.81,9.6-1.39,8-3.86,15.82-5.68,23.75-.6,2.63-2.16,6.38.51,7.77,2.91,1.51,4.92-2.19,6.51-4.26,4.7-6.1,8.02-13.02,10.31-20.36,1.39-4.45,2.83-8.84,5.06-12.97,2.81-5.2,7.32-7.54,12.95-8.07,1.19-.11,2.83-.93,3.54.7.54,1.22-.73,2.07-1.36,3.01-6.45,9.76-10.17,20.5-11.35,32.12-.26,2.6-1.14,6.19,1.38,7.27,2.89,1.23,4.93-1.98,6.6-4.19,6.4-8.46,10.74-17.9,13.56-28.14,3.09-11.2,6.57-13.4,18.51-12.45-9.27,15.44-10.74,33.24-16.24,50.89,6.34-3.43,10.96-7.3,15.19-11.67,3.94-4.07,7.85-8.21,12.88-10.95,4.62-2.51,6.96-.92,6.6,4.38-.37,5.52-3,10.22-6.06,14.58-10.18,14.5-22.05,27.52-35.23,39.36-13.84,12.44-30.94,15.34-48.55,16.92-23.54,2.12-47.1,4.34-69.63,12.12-17.87,6.16-33.72,15.22-43.03,32.69-1.77,3.32-3.08,6.88-4.83,10.85-16.13-23.67-37.98-36.61-66.72-37.96,1.02-2.02,2.93-2.29,4.46-3,27.59-12.89,57.01-17.75,87.08-19.71,27.74-1.81,55.58-1.51,83.29-4,10.61-.95,21.23-2.06,31.65-4.28,15.25-3.26,27.3-11.89,37.48-23.37,4.75-5.35,9.36-10.83,14-16.27.97-1.14,1.95-2.31,2.69-3.59,1.04-1.82,3.11-4.25,1.54-5.78-1.51-1.48-3.36,1.17-4.84,2.23-5.96,4.24-11.38,9.25-18.05,12.45-1.92.92-2.05,2.91-2.72,4.56-4.02,9.8-10.58,16.85-21.19,19.39-2.07.5-4.29.64-6.43.58-4.74-.14-8.99-1.42-10.75-6.47-1.47-4.23.96-9.94,5.37-12.96,4.52-3.1,9.79-4.01,15.02-5.05,8.94-1.78,9.27-2.18,10.26-12.79-2.51,2.69-4.54,4.88-6.59,7.07-1.73,1.84-3.65,3.42-6.12,4.16-7.04,2.12-11.33-.66-12.33-7.99-.16-1.15-.22-2.31-.36-3.77-2.29,1.13-2.63,3.47-3.83,5.12-3.04,4.18-5.99,8.46-10.56,11.15-6.33,3.74-11.75,1.15-12.51-6.11-.72-6.9,1.14-13.55,2.61-20.2,1.11-5.03,2.66-9.96,3.75-15,.82-3.78-.64-5.06-4.3-3.89-4.07,1.31-6.42,4.61-8.43,8.11-5.92,10.27-8.21,21.69-10.53,33.12-.44,2.17.22,5.51-2.12,6.2-3.25.97-6.9.69-10.39.75-1.46.03-1.25-1.24-1.06-2.24.29-1.55,1.06-3.06.49-4.95-2.75,2.98-5.18,5.91-7.94,8.49-2.89,2.71-6.41,4.69-10.43,2.89-3.86-1.73-4.34-5.58-4.54-9.34-.06-1.11-.1-2.23-.21-4.72-2.56,3.82-4.38,6.65-6.32,9.4-2.61,3.7-5.45,7.2-9.76,9.04-5.45,2.32-9.66.24-10.84-5.58-1.68-8.27.82-16.17,2.69-24.08.95-4.04,2.38-7.97,3.39-11.99.34-1.34.9-3.13-.65-4.1-1.26-.79-2.56.15-3.72.8-5.63,3.17-9.1,8.08-11.57,13.92-3.99,9.43-5.36,19.53-7.83,29.34-.4,1.58-.33,3.55-2.67,3.54-3.3,0-6.64.96-9.89-.08-.79-.25-.39-1.47-.18-2.24,6.85-24.47,10.9-49.71,20.29-73.48,2.65-6.7,5.89-13.05,10.79-18.4,3.13-3.41,6.88-5.78,11.77-5.66,3.57.08,5.51,1.9,5.9,5.44.47,4.28-.72,8.27-2.23,12.15-3.99,10.28-9.66,19.67-16.34,29.64,3.47-1.3,6.02-2.57,8.72-3.2,8.22-1.91,12.25,2.21,10.22,10.45-1.79,7.26-3.99,14.43-5.74,21.7-.79,3.26-2.63,8.2.44,9.58,3.75,1.68,5.96-3.15,7.91-6.09,3.87-5.85,6.61-12.27,8.85-18.92,1.17-3.46,2.29-6.94,3.68-10.32,4.02-9.76,6.02-10.97,17.57-10.76Z"/>
      <path class="cls-2" d="M57.46,206.47c-5.21.08-10.01-.95-13.78-4.77-5.91-6-5.14-16.26,1.5-21.85,1.7-1.43,2.97-1.54,3.56.91.39,1.61.72,3.25.88,4.9.21,2.18.78,4.23,1.67,6.22,3.53,7.9,10.54,12.19,16.21,9.9,7.51-3.04,12.12-13.12,9.53-20.77-1.36-4.02-3.89-7.31-6.49-10.56-4.36-5.45-9.14-10.58-12.53-16.75-6.18-11.23-3.91-24.16,5.8-33.17,8.24-7.65,21.23-8.4,31.44-1.74,3,1.95,5.99,4.31,5.11,8.36-.92,4.25-3.98,7.24-7.71,9.33-1.78,1-3.3.08-3.87-1.83-.48-1.58-.69-3.25-.96-4.89-1-6.13-2.75-7.98-7.98-8.36-6.26-.46-9.09,1.39-11.03,6.97-2.57,7.43-1.89,13.97,4.48,19.4,4.97,4.24,8.46,9.79,12.44,14.9,13.33,17.12,2.93,39.43-18.38,42.69-3.28.5-6.6.75-9.9,1.11Z"/>
      <path class="cls-3" d="M167.24,129.53c.36-3.72,2.56-5.85,6.31-6.17,3.24-.28,4.3,1.83,4.28,4.68-.03,4.08-2.62,5.85-6.21,6.32-3.43.45-3.97-2.13-4.38-4.83Z"/>
      <path class="cls-1" d="M116.57,149.47c3.59-13.18,7-26.4,14.06-38.27.84-1.41,1.89-3.76,3.99-2.76,1.82.87.65,2.95.3,4.51-3.08,13.68-10.69,25.09-18.35,36.52Z"/>
      <path class="cls-1" d="M250.3,191.23c-1.67,5.82-3.8,10.08-7.71,13.14-2.41,1.89-5.24,3.11-8.25,1.18-2.05-1.31-3.33-3.14-3.05-5.8.37-3.49,3.02-4.56,5.76-5.32,4.09-1.13,8.26-2.01,13.25-3.2Z"/>
    </g>
  </g>
</svg>