<?xml version="1.0" encoding="UTF-8"?>
<svg xmlns="http://www.w3.org/2000/svg" version="1.1" viewBox="0 0 319.7 366.9">
  <defs>
    <style>
      .cls-1 {
        fill: #e5f2fa;
      }

      .cls-2 {
        fill: none;
      }

      .cls-3 {
        fill: #0969da;
      }

      .cls-4 {
        fill: #e2f0fa;
      }
    </style>
  </defs>
  <!-- Generator: Adobe Illustrator 28.6.0, SVG Export Plug-In . SVG Version: 1.2.0 Build 709)  -->
  <g>
    <g id="Layer_2">
      <g id="Layer_1-2">
        <g>
          <path class="cls-2" d="M319.7,183.3v87.4c0,3.6-1.2,5.7-4.3,7.5-50.5,29-101,58.1-151.4,87.3-2.9,1.7-5.1,1.8-8.2,0-50.5-29.3-101.1-58.5-151.8-87.6-3-1.8-4.1-3.7-4.1-7.1V95.9c0-3.7,1.3-5.6,4.4-7.4C54.8,59.7,105.1,30.6,155.4,1.5c3.2-1.9,5.6-2,9.1,0,50.4,29.2,100.9,58.3,151.4,87.3,3.1,1.8,4,3.8,3.9,7.2-.1,29.1,0,58.3,0,87.4h0Z"/>
          <path class="cls-3" d="M292.7,79.5c7.2,4.1,14.5,8.2,21.8,12.2,2.7,1.5,2.1,3.9,2.1,6.1v171.4c0,3.4-1.1,5.4-4.1,7.1-48.9,28.1-97.8,56.3-146.6,84.7-4.4,2.6-7.6,2.6-12.1,0-48.3-28.2-96.8-56.1-145.4-83.9-4-2.3-5.3-5-5.3-9.5,0-56.1.2-112.3,0-168.4,0-4.6,1.3-7.3,5.5-9.4,6.4-3.2,12.5-6.9,18.7-10.4,3.1-.8,5.2,1,6.9,3.1,4.9,6.2,11.4,7.8,19,7.8,70.9,0,141.8,0,212.7,0,8.2,0,15.1-1.6,20.1-8.6,1.6-2.2,3.8-3.2,6.5-2.1h.2Z"/>
          <path class="cls-3" d="M292.7,79.5c-2.5.6-3.9,2.4-5.3,4.3-4.3,6.2-10.2,8.8-17.9,8.8-72.9-.2-145.8-.2-218.6,0-7.5,0-13.7-1.7-18.1-8.2-1.4-2-3.6-3.4-5.4-5.1,21.9-12.7,43.7-25.5,65.6-38.1,20.8-12,41.6-23.9,62.3-36,3.2-1.9,5.6-2,9,0,41.8,24.2,83.6,48.3,125.5,72.3,1,.6,1.9,1.3,2.8,2h.1Z"/>
          <path class="cls-1" d="M173.8,143.1c-5.2,10.6-9.2,21.1-11.7,32.1-.7,3.1-2.4,7.8.6,9.2,3.5,1.6,6-2.9,7.7-5.6,6.8-11.3,13.2-22.9,12.7-36.6,0-2.2.6-2.8,2.6-3.1,7.2-1.1,9.5.1,10.3,6.4,4.4-3.4,8.6-7,14.1-8.2,8.2-1.8,12.2,1.4,10.8,9.6-1.4,8-3.9,15.8-5.7,23.8-.6,2.6-2.2,6.4.5,7.8,2.9,1.5,4.9-2.2,6.5-4.3,4.7-6.1,8-13,10.3-20.4,1.4-4.4,2.8-8.8,5.1-13,2.8-5.2,7.3-7.5,12.9-8.1,1.2-.1,2.8-.9,3.5.7.5,1.2-.7,2.1-1.4,3-6.4,9.8-10.2,20.5-11.4,32.1-.3,2.6-1.1,6.2,1.4,7.3,2.9,1.2,4.9-2,6.6-4.2,6.4-8.5,10.7-17.9,13.6-28.1,3.1-11.2,6.6-13.4,18.5-12.4-9.3,15.4-10.7,33.2-16.2,50.9,6.3-3.4,11-7.3,15.2-11.7,3.9-4.1,7.9-8.2,12.9-10.9,4.6-2.5,7-.9,6.6,4.4-.4,5.5-3,10.2-6.1,14.6-10.2,14.5-22,27.5-35.2,39.4-13.8,12.4-30.9,15.3-48.6,16.9-23.5,2.1-47.1,4.3-69.6,12.1-17.9,6.2-33.7,15.2-43,32.7-1.8,3.3-3.1,6.9-4.8,10.9-16.1-23.7-38-36.6-66.7-38,1-2,2.9-2.3,4.5-3,27.6-12.9,57-17.8,87.1-19.7,27.7-1.8,55.6-1.5,83.3-4,10.6-.9,21.2-2.1,31.6-4.3,15.2-3.3,27.3-11.9,37.5-23.4,4.8-5.4,9.4-10.8,14-16.3,1-1.1,2-2.3,2.7-3.6,1-1.8,3.1-4.2,1.5-5.8s-3.4,1.2-4.8,2.2c-6,4.2-11.4,9.2-18,12.4-1.9.9-2,2.9-2.7,4.6-4,9.8-10.6,16.9-21.2,19.4-2.1.5-4.3.6-6.4.6-4.7-.1-9-1.4-10.8-6.5-1.5-4.2,1-9.9,5.4-13,4.5-3.1,9.8-4,15-5.1,8.9-1.8,9.3-2.2,10.3-12.8-2.5,2.7-4.5,4.9-6.6,7.1-1.7,1.8-3.6,3.4-6.1,4.2-7,2.1-11.3-.7-12.3-8-.2-1.1-.2-2.3-.4-3.8-2.3,1.1-2.6,3.5-3.8,5.1-3,4.2-6,8.5-10.6,11.1-6.3,3.7-11.8,1.1-12.5-6.1-.7-6.9,1.1-13.6,2.6-20.2,1.1-5,2.7-10,3.8-15,.8-3.8-.6-5.1-4.3-3.9-4.1,1.3-6.4,4.6-8.4,8.1-5.9,10.3-8.2,21.7-10.5,33.1-.4,2.2.2,5.5-2.1,6.2-3.2,1-6.9.7-10.4.8-1.5,0-1.2-1.2-1.1-2.2.3-1.6,1.1-3.1.5-4.9-2.8,3-5.2,5.9-7.9,8.5-2.9,2.7-6.4,4.7-10.4,2.9-3.9-1.7-4.3-5.6-4.5-9.3,0-1.1-.1-2.2-.2-4.7-2.6,3.8-4.4,6.6-6.3,9.4-2.6,3.7-5.4,7.2-9.8,9-5.4,2.3-9.7.2-10.8-5.6-1.7-8.3.8-16.2,2.7-24.1.9-4,2.4-8,3.4-12,.3-1.3.9-3.1-.7-4.1-1.3-.8-2.6.1-3.7.8-5.6,3.2-9.1,8.1-11.6,13.9-4,9.4-5.4,19.5-7.8,29.3-.4,1.6-.3,3.6-2.7,3.5-3.3,0-6.6,1-9.9,0-.8-.2-.4-1.5-.2-2.2,6.8-24.5,10.9-49.7,20.3-73.5,2.7-6.7,5.9-13.1,10.8-18.4,3.1-3.4,6.9-5.8,11.8-5.7,3.6,0,5.5,1.9,5.9,5.4.5,4.3-.7,8.3-2.2,12.2-4,10.3-9.7,19.7-16.3,29.6,3.5-1.3,6-2.6,8.7-3.2,8.2-1.9,12.2,2.2,10.2,10.4-1.8,7.3-4,14.4-5.7,21.7-.8,3.3-2.6,8.2.4,9.6,3.8,1.7,6-3.1,7.9-6.1,3.9-5.9,6.6-12.3,8.9-18.9,1.2-3.5,2.3-6.9,3.7-10.3,4-9.8,6-11,17.6-10.8h-.4Z"/>
          <path class="cls-1" d="M57.5,206.5c-5.2,0-10-.9-13.8-4.8-5.9-6-5.1-16.3,1.5-21.9,1.7-1.4,3-1.5,3.6.9s.7,3.2.9,4.9c.2,2.2.8,4.2,1.7,6.2,3.5,7.9,10.5,12.2,16.2,9.9,7.5-3,12.1-13.1,9.5-20.8-1.4-4-3.9-7.3-6.5-10.6-4.4-5.4-9.1-10.6-12.5-16.8-6.2-11.2-3.9-24.2,5.8-33.2,8.2-7.7,21.2-8.4,31.4-1.7,3,1.9,6,4.3,5.1,8.4-.9,4.3-4,7.2-7.7,9.3-1.8,1-3.3,0-3.9-1.8-.5-1.6-.7-3.2-1-4.9-1-6.1-2.8-8-8-8.4-6.3-.5-9.1,1.4-11,7-2.6,7.4-1.9,14,4.5,19.4,5,4.2,8.5,9.8,12.4,14.9,13.3,17.1,2.9,39.4-18.4,42.7-3.3.5-6.6.8-9.9,1.1h0v.2Z"/>
          <path class="cls-4" d="M167.2,129.5c.4-3.7,2.6-5.8,6.3-6.2,3.2-.3,4.3,1.8,4.3,4.7s-2.6,5.9-6.2,6.3c-3.4.4-4-2.1-4.4-4.8h0Z"/>
          <path class="cls-3" d="M116.6,149.5c3.6-13.2,7-26.4,14.1-38.3.8-1.4,1.9-3.8,4-2.8,1.8.9.6,2.9.3,4.5-3.1,13.7-10.7,25.1-18.3,36.5h0Z"/>
          <path class="cls-3" d="M250.3,191.2c-1.7,5.8-3.8,10.1-7.7,13.1-2.4,1.9-5.2,3.1-8.2,1.2-2.1-1.3-3.3-3.1-3.1-5.8.4-3.5,3-4.6,5.8-5.3,4.1-1.1,8.3-2,13.2-3.2h0Z"/>
        </g>
      </g>
    </g>
  </g>
</svg>