<?xml version="1.0" encoding="UTF-8"?>
<svg id="Layer_2" data-name="Layer 2" xmlns="http://www.w3.org/2000/svg" viewBox="0 0 357.73 358.25">
  <defs>
    <style>
      .cls-1 {
        fill: #000;
      }

      .cls-1, .cls-2 {
        stroke-width: 0px;
      }

      .cls-2 {
        fill: #fefefe;
      }
    </style>
  </defs>
  <g id="Layer_1-2" data-name="Layer 1">
    <g>
      <path class="cls-1" d="M242.7,358.25c-35.28,0-70.56,0-105.84,0-7.03,0-8.94-1.86-8.94-8.77,0-45.34,0-90.68,0-136.02,0-6.91,1.92-8.8,8.92-8.8,70.68,0,141.37,0,212.05,0,6.88,0,8.83,1.99,8.84,8.97,0,45.22,0,90.43,0,135.65,0,7.08-1.95,8.98-9.19,8.98-35.28,0-70.56,0-105.84,0Z"/>
      <path class="cls-1" d="M.13,51.98c18.07,11.08,37.51,15.72,57.3,19.12,34.33,5.9,68.93,6.87,103.61,4.43,26.26-1.85,52.25-5.42,77.09-14.83,5.9-2.24,11.56-4.99,17.19-8.69.08,1.53.17,2.5.17,3.46,0,19.11-.07,38.23.07,57.34.03,4-1.38,6.95-4.33,9.43-5.23,4.4-11.34,7.18-17.64,9.55-18.65,7.02-38.11,10.5-57.81,12.72-25.71,2.9-51.5,3.32-77.3,1.58-26.53-1.79-52.76-5.31-77.81-14.92-5.6-2.15-10.95-4.77-15.69-8.5C1.64,120.07.01,116.85.06,112.38c.18-18.74.08-37.48.08-56.22v-4.18Z"/>
      <path class="cls-1" d="M255.5,135.19c0,18.72-.04,36.7.05,54.68,0,2.17-1.12,2.02-2.57,2.02-8.48-.02-16.96-.01-25.43-.01-30.42,0-60.84,0-91.26,0-13.42,0-21.1,7.67-21.14,21.09-.01,4.87-.04,9.74.02,14.61.02,1.57-.11,2.57-2.15,2.47-32.3-1.55-64.36-4.54-94.8-16.64-4.85-1.93-9.5-4.37-13.55-7.78-3.02-2.54-4.63-5.52-4.6-9.7.15-19.11.07-38.22.07-57.34,0-.98,0-1.96,0-3.51,8.15,5.19,16.54,8.8,25.29,11.59,20.04,6.39,40.68,9.55,61.55,11.42,27.26,2.44,54.54,2.5,81.79-.02,25.46-2.35,50.66-6.1,74.43-16.31,4.09-1.76,7.92-4.01,12.32-6.57Z"/>
      <path class="cls-1" d="M142.51,63.8c-41.53.26-73.19-1.69-104.31-9.12-9.32-2.23-18.48-5-26.94-9.69-2.96-1.64-5.74-3.51-8.01-6.06-4.16-4.68-4.15-9.33.06-14.02,2.8-3.11,6.32-5.23,10.02-7.06,12.74-6.31,26.45-9.43,40.31-11.84C84.47.63,115.54-.8,146.78.39c23.45.89,46.72,3.16,69.61,8.56,9.58,2.26,18.99,5.06,27.71,9.77,2.86,1.54,5.56,3.34,7.83,5.71,4.76,4.95,4.77,10.23-.06,15.16-3.37,3.43-7.52,5.71-11.86,7.65-14.34,6.4-29.56,9.49-44.95,11.89-20.61,3.22-41.36,4.66-52.54,4.68Z"/>
      <path class="cls-1" d="M.13,218.33c11.17,7.12,22.94,11.28,35.08,14.43,20.43,5.29,41.27,7.91,62.29,9.31,4.97.33,9.95.61,14.93.7,2.04.03,2.78.52,2.77,2.71-.08,19.47-.07,38.94-.01,58.42,0,1.95-.25,2.88-2.6,2.8-29.57-1.12-58.81-4.25-87.06-13.71-6.6-2.21-12.99-4.98-18.77-8.97-4.46-3.09-6.88-6.88-6.75-12.79.37-16.22.13-32.45.13-48.68,0-1.19,0-2.39,0-4.2Z"/>
      <path class="cls-2" d="M268.3,281.58c0,5.99,0,11.98,0,17.97,0,4.16-.51,8.24-2.56,11.92-.9,1.61-.57,2.52.6,3.84,2.71,3.04,2.66,6.53.2,9.05-2.43,2.49-6.11,2.63-9.01-.02-1.46-1.34-2.48-1.31-4.18-.56-17.11,7.58-35.67-4.06-36.09-22.8-.29-12.97-.23-25.95-.01-38.92.23-14.18,11.36-25.18,25.19-25.3,14.06-.12,25.09,10.29,25.74,24.61.3,6.72.05,13.47.05,20.21.02,0,.05,0,.07,0Z"/>
      <path class="cls-2" d="M179.87,326.17c-14.59-.05-26.01-10.92-26.4-24.06-.14-4.66,1.9-7.41,5.71-7.73,4.06-.33,6.57,2.12,7.03,6.9.64,6.6,5.2,11.47,11.25,12.03,6.56.61,12.07-3.19,13.79-9.51,2.19-8.03-3.77-15.56-12.64-15.97-12.72-.58-22.44-8.57-24.73-20.89-1.83-9.89,1.3-18.38,9.17-24.63,8.11-6.44,17.29-7.51,26.68-3.13,9.1,4.25,13.97,11.75,14.63,21.8.3,4.54-2.03,7.34-5.87,7.57-3.88.23-6.39-2.24-6.83-6.73-.76-7.74-6.31-12.71-13.69-12.26-6.55.39-11.76,6.01-11.77,12.69-.01,7.24,5.41,12.5,13.22,12.83,13.18.56,23.84,10.35,24.92,22.92,1.14,13.29-7.06,24.64-20.04,27.62-1.81.41-3.69.47-4.43.56Z"/>
      <path class="cls-2" d="M281.11,281.59c0-12.48-.04-24.96.02-37.44.02-4.65,2.32-7.27,6.14-7.37,3.85-.11,6.46,2.53,6.6,6.97.13,4.24.03,8.49.03,12.73,0,17.85.07,35.7-.07,53.54-.02,2.84.73,3.5,3.49,3.45,9.21-.19,18.43-.08,27.65-.06,3.5,0,6.06,1.48,6.96,5.01.77,3.04-.51,5.3-3.07,6.97-1.36.88-2.85.79-4.33.79-11.96.02-23.92.04-35.88,0-5.29-.02-7.49-2.18-7.52-7.51-.06-12.36-.02-24.71-.02-37.07Z"/>
      <path class="cls-1" d="M255.48,303.85c-4.98-3.72-7.98-3.94-10.69-1.26-2.6,2.57-2.42,5.79.57,10.02-6.93,2.5-14.94-2.82-15.21-10.97-.45-13.46-.39-26.96,0-40.43.2-7.02,6.19-11.86,13.06-11.69,6.82.17,12.15,5.37,12.24,12.53.17,13.69.05,27.39.05,41.79Z"/>
    </g>
  </g>
</svg>