<?xml version="1.0" encoding="UTF-8"?>
<svg xmlns="http://www.w3.org/2000/svg" version="1.1" viewBox="0 0 357.7 358.2">
  <defs>
    <style>
      .cls-1 {
        fill: #0969da;
      }

      .cls-2 {
        fill: #fefefe;
      }
    </style>
  </defs>
  <!-- Generator: Adobe Illustrator 28.6.0, SVG Export Plug-In . SVG Version: 1.2.0 Build 709)  -->
  <g>
    <g id="Layer_2">
      <g id="Layer_1-2">
        <g>
          <path class="cls-1" d="M242.7,358.2h-105.8c-7,0-8.9-1.9-8.9-8.8v-136c0-6.9,1.9-8.8,8.9-8.8h212.1c6.9,0,8.8,2,8.8,9v135.6c0,7.1-2,9-9.2,9h-105.9Z"/>
          <path class="cls-1" d="M.1,52c18.1,11.1,37.5,15.7,57.3,19.1,34.3,5.9,68.9,6.9,103.6,4.4,26.3-1.8,52.2-5.4,77.1-14.8,5.9-2.2,11.6-5,17.2-8.7,0,1.5.2,2.5.2,3.5v57.3c0,4-1.4,6.9-4.3,9.4-5.2,4.4-11.3,7.2-17.6,9.5-18.6,7-38.1,10.5-57.8,12.7-25.7,2.9-51.5,3.3-77.3,1.6-26.5-1.8-52.8-5.3-77.8-14.9-5.6-2.1-10.9-4.8-15.7-8.5-3.4-2.5-5-5.8-5-10.2.2-18.7,0-37.5,0-56.2v-4.2h.1Z"/>
          <path class="cls-1" d="M255.5,135.2v54.7c0,2.2-1.1,2-2.6,2h-116.7c-13.4,0-21.1,7.7-21.1,21.1v14.6c0,1.6,0,2.6-2.2,2.5-32.3-1.6-64.4-4.5-94.8-16.6-4.9-1.9-9.5-4.4-13.6-7.8-3-2.5-4.6-5.5-4.6-9.7.2-19.1,0-38.2,0-57.3v-3.5c8.1,5.2,16.5,8.8,25.3,11.6,20,6.4,40.7,9.6,61.6,11.4,27.3,2.4,54.5,2.5,81.8,0,25.5-2.4,50.7-6.1,74.4-16.3,4.1-1.8,7.9-4,12.3-6.6h.2Z"/>
          <path class="cls-1" d="M142.5,63.8c-41.5.3-73.2-1.7-104.3-9.1-9.3-2.2-18.5-5-26.9-9.7-3-1.6-5.7-3.5-8-6.1-4.2-4.7-4.2-9.3,0-14,2.8-3.1,6.3-5.2,10-7.1,12.7-6.3,26.5-9.4,40.3-11.8C84.5.6,115.5-.8,146.8.4c23.4.9,46.7,3.2,69.6,8.6,9.6,2.3,19,5.1,27.7,9.8,2.9,1.5,5.6,3.3,7.8,5.7,4.8,5,4.8,10.2,0,15.2-3.4,3.4-7.5,5.7-11.9,7.7-14.3,6.4-29.6,9.5-44.9,11.9-20.6,3.2-41.4,4.7-52.5,4.7h0v-.2Z"/>
          <path class="cls-1" d="M.1,218.3c11.2,7.1,22.9,11.3,35.1,14.4,20.4,5.3,41.3,7.9,62.3,9.3,5,.3,9.9.6,14.9.7,2,0,2.8.5,2.8,2.7v58.4c0,2-.2,2.9-2.6,2.8-29.6-1.1-58.8-4.2-87.1-13.7-6.6-2.2-13-5-18.8-9-4.5-3.1-6.9-6.9-6.8-12.8C.3,254.9,0,238.7,0,222.4v-4.2h0Z"/>
          <path class="cls-2" d="M268.3,281.6v18c0,4.2-.5,8.2-2.6,11.9-.9,1.6-.6,2.5.6,3.8,2.7,3,2.7,6.5.2,9-2.4,2.5-6.1,2.6-9,0-1.5-1.3-2.5-1.3-4.2-.6-17.1,7.6-35.7-4.1-36.1-22.8-.3-13-.2-26,0-38.9.2-14.2,11.4-25.2,25.2-25.3,14.1-.1,25.1,10.3,25.7,24.6.3,6.7,0,13.5,0,20.2h.2Z"/>
          <path class="cls-2" d="M179.9,326.2c-14.6,0-26-10.9-26.4-24.1-.1-4.7,1.9-7.4,5.7-7.7,4.1-.3,6.6,2.1,7,6.9.6,6.6,5.2,11.5,11.2,12,6.6.6,12.1-3.2,13.8-9.5,2.2-8-3.8-15.6-12.6-16-12.7-.6-22.4-8.6-24.7-20.9-1.8-9.9,1.3-18.4,9.2-24.6,8.1-6.4,17.3-7.5,26.7-3.1,9.1,4.2,14,11.8,14.6,21.8.3,4.5-2,7.3-5.9,7.6-3.9.2-6.4-2.2-6.8-6.7-.8-7.7-6.3-12.7-13.7-12.3-6.6.4-11.8,6-11.8,12.7s5.4,12.5,13.2,12.8c13.2.6,23.8,10.4,24.9,22.9,1.1,13.3-7.1,24.6-20,27.6-1.8.4-3.7.5-4.4.6h0Z"/>
          <path class="cls-2" d="M281.1,281.6v-37.4c0-4.6,2.3-7.3,6.1-7.4,3.9-.1,6.5,2.5,6.6,7,.1,4.2,0,8.5,0,12.7v53.5c0,2.8.7,3.5,3.5,3.5,9.2-.2,18.4,0,27.6,0s6.1,1.5,7,5c.8,3-.5,5.3-3.1,7-1.4.9-2.9.8-4.3.8h-35.9c-5.3,0-7.5-2.2-7.5-7.5v-37.1h0Z"/>
          <path class="cls-1" d="M255.5,303.9c-5-3.7-8-3.9-10.7-1.3-2.6,2.6-2.4,5.8.6,10-6.9,2.5-14.9-2.8-15.2-11-.4-13.5-.4-27,0-40.4.2-7,6.2-11.9,13.1-11.7,6.8.2,12.1,5.4,12.2,12.5.2,13.7,0,27.4,0,41.8h0Z"/>
        </g>
      </g>
    </g>
  </g>
</svg>